<?xml version="1.0" standalone="no"?>
<!DOCTYPE svg PUBLIC "-//W3C//DTD SVG 20010904//EN"
 "http://www.w3.org/TR/2001/REC-SVG-20010904/DTD/svg10.dtd">
<svg version="1.0" xmlns="http://www.w3.org/2000/svg"
 width="833.000000pt" height="1000.000000pt" viewBox="0 0 833.000000 1000.000000"
 preserveAspectRatio="xMidYMid meet">

<g transform="translate(0.000000,1000.000000) scale(0.100000,-0.100000)"
fill="#000000" stroke="none">
<path d="M0 5000 l0 -5000 4165 0 4165 0 0 5000 0 5000 -4165 0 -4165 0 0
-5000z m2885 3720 c3 -5 1 -10 -4 -10 -6 0 -11 5 -11 10 0 6 2 10 4 10 3 0 8
-4 11 -10z m-50 -70 c-3 -5 -12 -10 -18 -10 -7 0 -6 4 3 10 19 12 23 12 15 0z
m-105 -50 c0 -5 -2 -10 -4 -10 -3 0 -8 5 -11 10 -3 6 -1 10 4 10 6 0 11 -4 11
-10z m40 0 c0 -5 -4 -10 -10 -10 -5 0 -10 5 -10 10 0 6 5 10 10 10 6 0 10 -4
10 -10z m-76 -15 c-4 -8 -8 -15 -10 -15 -2 0 -4 7 -4 15 0 8 4 15 10 15 5 0 7
-7 4 -15z m146 -3 c0 -4 -10 -9 -22 -9 -18 -2 -20 0 -8 7 18 12 30 13 30 2z
m448 -17 c-3 -3 -9 2 -12 12 -6 14 -5 15 5 6 7 -7 10 -15 7 -18z m48 -1 c-3
-9 -6 -20 -6 -25 0 -15 -20 -10 -27 7 -3 9 0 20 8 25 21 13 32 11 25 -7z
m-886 -28 c0 -3 -4 -8 -10 -11 -5 -3 -10 -1 -10 4 0 6 5 11 10 11 6 0 10 -2
10 -4z m293 -26 c-4 -4 -20 -10 -35 -14 -21 -5 -28 -3 -28 8 0 8 12 16 28 18
32 4 47 -1 35 -12z m-393 -1 c0 -11 -27 -12 -34 -1 -2 4 4 9 15 9 10 1 19 -2
19 -8z m100 -59 c-24 -16 -31 -11 -19 11 8 16 14 18 22 10 9 -9 8 -14 -3 -21z
m263 -26 c-7 -19 -23 -18 -23 1 0 8 -3 14 -7 14 -20 -3 -24 2 -13 16 12 14 15
14 31 -1 10 -9 15 -22 12 -30z m597 36 c0 -5 -7 -10 -16 -10 -8 0 -12 5 -9 10
3 6 10 10 16 10 5 0 9 -4 9 -10z m690 6 c0 -3 -4 -8 -10 -11 -5 -3 -10 -1 -10
4 0 6 5 11 10 11 6 0 10 -2 10 -4z m-1130 -14 c0 -13 -12 -22 -22 -16 -10 6
-1 24 13 24 5 0 9 -4 9 -8z m310 -15 c0 -20 -1 -20 -20 -2 -16 14 -23 16 -32
7 -7 -7 -17 -12 -22 -12 -23 1 26 28 49 28 18 0 25 -6 25 -21z m-563 -43 c-10
-10 -37 16 -37 34 0 13 4 12 22 -5 12 -13 19 -25 15 -29z m563 12 c6 -8 19
-12 27 -9 10 4 14 2 9 -5 -3 -6 -2 -13 4 -17 5 -3 10 -15 10 -27 0 -14 5 -18
15 -14 18 7 20 -10 3 -18 -7 -3 -3 -3 9 -1 12 3 24 1 28 -5 10 -16 25 -12 19
5 -4 8 -2 15 3 15 11 0 43 -37 37 -42 -2 -3 3 -5 11 -5 22 0 19 7 -15 36 -31
28 -43 61 -22 68 7 3 12 -4 12 -18 0 -22 1 -22 16 -7 15 15 19 15 40 2 15 -10
24 -12 29 -5 10 18 38 13 31 -5 -4 -10 -2 -13 6 -8 7 5 9 0 6 -14 -7 -25 8
-38 36 -33 11 1 16 -2 12 -8 -5 -7 6 -11 31 -12 45 -1 114 -6 128 -9 30 -7 74
2 93 20 24 22 46 27 40 8 -6 -17 16 -38 40 -38 10 0 25 11 32 25 7 14 16 23
18 20 3 -3 11 0 17 5 9 8 12 4 11 -12 0 -14 4 -22 12 -20 6 1 12 -7 12 -18 0
-20 1 -20 25 -4 15 10 25 12 25 5 0 -6 6 -11 13 -11 8 0 22 -9 32 -20 21 -24
43 -26 51 -5 4 8 10 12 16 9 5 -3 5 -11 -2 -19 -9 -10 -6 -16 9 -25 12 -6 27
-10 34 -9 15 3 87 -32 87 -43 0 -4 -8 -12 -19 -17 -15 -9 -61 -88 -61 -106 0
-16 19 8 25 32 3 15 22 42 40 60 l34 33 90 -45 c50 -25 93 -45 96 -45 2 0 28
-14 57 -31 29 -17 80 -47 113 -67 130 -77 445 -343 445 -376 0 -6 9 -17 21
-24 12 -8 18 -19 15 -28 -3 -8 -2 -13 3 -10 9 6 101 -87 101 -103 0 -6 6 -8
13 -5 18 6 41 -21 31 -37 -5 -8 -2 -10 8 -7 11 5 17 -8 27 -53 15 -64 14 -63
41 -49 13 7 19 6 23 -4 4 -10 -7 -16 -36 -20 -23 -4 -44 -10 -47 -14 -3 -4
-19 -19 -37 -34 -31 -25 -32 -26 -9 -30 16 -3 23 0 22 10 0 8 9 18 22 23 16 6
22 5 22 -6 0 -7 13 -23 28 -34 l28 -20 -4 32 c-3 18 -7 26 -9 20 -8 -24 -33
-14 -33 13 0 21 3 24 21 19 13 -4 19 -3 16 2 -7 12 30 10 40 -2 5 -4 2 -5 -4
-1 -14 8 -17 -3 -7 -28 3 -9 10 -13 15 -10 5 3 9 -6 9 -20 0 -18 6 -26 18 -27
16 -1 16 -2 0 -6 -24 -6 -23 -20 2 -33 11 -6 20 -17 20 -25 0 -8 3 -15 8 -15
25 0 59 -145 35 -154 -7 -3 -13 -16 -13 -28 -1 -23 -1 -23 -25 4 -13 16 -26
24 -30 19 -5 -10 41 -51 57 -51 4 0 13 -12 18 -26 7 -16 14 -23 22 -18 9 5 9
2 -1 -9 -8 -10 -9 -17 -3 -17 6 0 14 -10 17 -21 4 -12 10 -17 14 -12 3 5 17 9
29 8 18 0 27 -9 35 -35 19 -56 16 -84 -10 -88 -21 -3 -34 -32 -14 -32 4 0 12
-15 18 -32 6 -22 15 -33 26 -32 20 2 22 -7 5 -25 -11 -10 -6 -19 25 -46 24
-21 34 -36 27 -40 -6 -4 -19 0 -29 9 -24 22 -31 12 -17 -29 16 -45 22 -51 41
-35 12 10 13 16 4 26 -8 10 -8 14 -1 14 12 0 52 -83 52 -107 0 -13 2 -13 17
-2 15 13 15 12 5 -8 -21 -39 -15 -63 16 -63 l27 -1 -23 -12 c-12 -7 -20 -16
-17 -19 5 -5 19 -93 29 -188 2 -19 6 -42 9 -50 5 -14 13 -87 23 -225 3 -32 7
-61 9 -64 3 -2 -3 -10 -13 -18 -12 -11 -13 -13 -2 -10 13 4 15 -13 14 -113 0
-64 -4 -122 -8 -128 -4 -7 -1 -12 8 -12 8 0 18 5 21 10 11 18 23 11 44 -26 19
-32 19 -35 4 -31 -55 15 -74 17 -68 7 3 -5 18 -11 33 -11 17 -1 21 -3 10 -6
-10 -2 -18 -9 -18 -14 0 -6 5 -7 10 -4 6 3 10 -1 10 -9 0 -19 -11 -21 -28 -4
-7 7 -12 8 -12 4 0 -5 7 -14 16 -21 19 -13 12 -65 -8 -65 -6 0 -22 -10 -35
-22 -22 -20 -29 -16 -24 16 1 4 -4 14 -10 22 -8 10 -8 14 0 14 6 0 11 16 11
38 -1 30 -3 34 -11 20 -15 -26 -29 -22 -29 10 0 25 -19 69 -20 47 -1 -5 -3
-34 -6 -63 -6 -51 -5 -53 13 -43 14 7 20 7 21 -2 1 -7 4 -24 8 -39 5 -23 2
-28 -20 -34 -14 -3 -26 -12 -26 -19 0 -9 8 -11 22 -7 14 3 19 2 14 -6 -4 -7
-14 -12 -22 -12 -12 0 -18 -23 -17 -67 1 -7 -6 -13 -15 -13 -12 0 -13 -3 -5
-11 18 -18 3 -39 -28 -39 -23 0 -27 -3 -22 -17 4 -11 8 -12 11 -5 2 7 13 12
24 12 21 0 21 0 2 -22 -14 -16 -15 -20 -4 -16 11 4 16 -1 17 -13 1 -10 -3 -19
-8 -19 -6 0 -8 -9 -4 -19 8 -26 -6 -33 -37 -17 -16 8 -31 10 -39 5 -12 -7 -11
-9 1 -9 13 0 13 -1 0 -10 -22 -15 -30 -12 -23 8 6 15 4 15 -9 4 -14 -11 -18
-10 -26 4 -9 17 -11 17 -37 0 -16 -11 -24 -23 -21 -32 3 -9 2 -12 -5 -9 -6 4
-8 13 -5 21 3 8 1 14 -4 14 -6 0 -10 -9 -10 -19 0 -11 -3 -21 -7 -24 -5 -2 -2
-2 5 -1 6 2 12 -1 12 -6 0 -5 -11 -12 -24 -16 -17 -4 -23 -12 -21 -24 2 -10
-3 -24 -11 -31 -10 -8 -11 -15 -4 -25 6 -7 10 -18 9 -26 -5 -36 2 -43 20 -21
17 20 20 21 26 6 3 -10 3 -14 -1 -11 -3 4 -16 -2 -27 -13 -12 -11 -26 -18 -32
-15 -7 2 -11 -10 -11 -30 0 -19 4 -34 9 -34 4 0 5 5 1 12 -4 7 -3 8 4 4 7 -4
12 -14 12 -22 0 -9 -5 -12 -12 -8 -6 4 -8 3 -4 -4 3 -6 2 -13 -4 -17 -5 -3
-10 -11 -10 -17 0 -6 6 -5 16 3 14 11 18 10 31 -6 10 -12 14 -14 10 -5 -3 10
2 16 13 16 10 0 16 -4 13 -9 -2 -4 1 -15 8 -23 15 -19 74 -50 65 -35 -4 6 -3
11 3 11 15 0 26 -23 13 -28 -6 -2 -8 -10 -5 -18 3 -8 1 -14 -5 -14 -5 0 -13
-7 -16 -16 -3 -8 -2 -13 2 -10 4 2 14 0 22 -5 13 -8 12 -12 -4 -24 -10 -8 -23
-12 -27 -9 -5 3 -6 -1 -3 -9 3 -8 -2 -17 -11 -21 -11 -4 -14 -12 -10 -25 4
-13 -13 -56 -51 -128 -31 -59 -60 -109 -65 -111 -4 -2 -5 -10 -2 -18 3 -8 0
-14 -6 -14 -6 0 -11 -5 -11 -10 0 -35 -231 -340 -257 -340 -7 0 -13 -4 -13 -9
0 -13 -74 -85 -165 -161 -87 -72 -250 -190 -264 -190 -4 0 -16 -9 -26 -20 -10
-11 -25 -20 -34 -21 -12 0 -10 -3 5 -10 28 -14 95 16 213 96 24 17 53 35 64
42 11 6 22 15 26 20 3 4 24 21 46 38 34 24 250 229 276 260 5 6 22 26 39 46
16 20 30 39 30 43 0 7 26 40 58 73 12 13 22 29 22 35 0 6 15 32 33 57 17 26
50 83 72 128 22 45 45 82 51 82 17 1 25 29 11 35 -7 2 -3 5 9 5 20 1 19 -2
-12 -66 -18 -38 -37 -72 -41 -78 -4 -5 -24 -41 -43 -79 -19 -38 -41 -71 -47
-73 -7 -3 -10 -9 -7 -14 3 -5 0 -9 -5 -9 -6 0 -11 -5 -11 -12 0 -11 -74 -113
-136 -188 -16 -19 -75 -81 -132 -137 -77 -77 -110 -103 -129 -103 -17 0 -23
-4 -20 -14 6 -16 -87 -91 -103 -81 -5 3 -10 -1 -10 -9 0 -8 -40 -41 -90 -73
-49 -32 -89 -61 -90 -65 0 -5 14 -8 31 -8 23 0 30 -4 26 -15 -6 -15 80 -65
136 -79 15 -3 27 -11 27 -16 0 -5 7 -7 15 -4 8 4 15 2 15 -3 0 -9 63 -43 79
-43 5 0 37 -16 70 -35 34 -19 64 -34 66 -34 3 0 31 -12 63 -27 31 -15 63 -27
70 -27 6 0 12 -4 12 -9 0 -4 7 -8 15 -8 24 0 60 -41 45 -50 -24 -15 0 -31 36
-24 22 4 34 2 34 -5 0 -6 -7 -11 -15 -11 -8 0 -15 -9 -15 -20 0 -11 5 -20 10
-20 6 0 10 7 10 17 0 16 14 10 16 -8 1 -5 3 -11 4 -14 1 -3 3 -11 4 -17 0 -7
10 -13 21 -13 16 0 19 -6 17 -27 -3 -22 0 -27 12 -22 9 3 16 10 16 15 0 5 5 9
10 9 6 0 10 -8 8 -17 -2 -11 2 -17 10 -15 10 2 10 -2 2 -18 -14 -26 -4 -44 14
-27 8 6 12 15 9 20 -2 4 1 7 7 7 6 0 10 -8 8 -17 -2 -11 3 -18 12 -18 8 0 14
6 13 13 -6 25 17 11 23 -15 7 -25 8 -25 15 -8 7 19 8 19 8 1 1 -12 6 -16 16
-12 32 12 14 -24 -20 -40 -29 -14 -33 -19 -24 -35 5 -10 14 -19 20 -19 6 0 7
5 4 10 -3 6 4 10 18 10 14 0 30 6 36 14 9 11 6 12 -16 9 -25 -4 -26 -3 -11 9
9 8 19 31 23 51 4 20 11 37 15 37 13 0 32 -29 26 -39 -3 -5 2 -12 11 -15 17
-7 33 9 33 32 0 19 20 14 21 -5 0 -12 2 -13 6 -5 5 13 51 37 66 34 4 -1 7 3 7
8 0 13 -6 13 -31 0 -15 -9 -23 -7 -37 6 -16 17 -16 17 6 12 13 -4 22 -2 22 5
0 6 3 7 7 4 3 -4 12 -2 20 4 10 9 13 8 13 -1 0 -7 7 -10 15 -6 22 8 19 -3 -7
-28 -22 -21 -34 -46 -22 -46 3 0 12 7 21 15 8 8 20 12 26 8 6 -4 8 0 4 10 -5
14 -2 16 18 11 17 -4 25 -2 25 7 0 11 3 11 10 -1 8 -12 10 -12 10 5 0 15 2 17
9 6 5 -7 14 -10 20 -7 6 4 11 3 11 -2 0 -4 24 -6 54 -4 32 2 56 0 60 -7 5 -7
1 -9 -9 -5 -11 5 -14 2 -8 -12 5 -13 3 -15 -8 -9 -11 6 -12 5 -1 -6 16 -17 16
-37 0 -21 -7 7 -16 12 -22 12 -5 0 -1 -6 9 -14 21 -15 60 -4 82 24 11 13 12
13 13 -2 0 -20 20 -25 20 -5 0 18 38 48 45 36 4 -5 10 -7 15 -4 4 3 11 -3 14
-12 5 -12 9 -14 18 -5 19 19 48 14 58 -10 l9 -23 7 23 c5 17 12 22 25 19 11
-3 22 -1 25 4 3 5 42 8 87 7 45 0 91 2 102 5 11 4 40 9 65 11 25 3 53 8 63 11
10 4 17 3 17 -4 0 -6 5 -11 11 -11 5 0 8 4 5 9 -3 5 4 11 15 14 17 5 20 2 16
-14 -7 -25 9 -24 31 2 9 11 30 27 46 36 24 12 30 13 38 1 8 -10 11 -10 15 0 4
9 8 10 18 2 9 -8 15 -8 20 0 3 5 1 10 -4 10 -6 0 -11 5 -11 10 0 7 6 7 20 0
19 -10 25 -6 21 14 -1 5 5 4 13 -4 9 -7 16 -8 16 -2 0 5 15 15 33 22 17 6 51
21 75 33 37 19 44 20 52 7 8 -12 10 -11 10 8 0 17 6 22 26 22 14 0 23 4 20 9
-4 5 1 8 10 7 9 -1 20 -10 25 -19 8 -13 15 -14 34 -7 18 7 25 6 26 -3 0 -9 2
-9 6 1 2 6 11 12 19 12 9 0 13 4 10 9 -4 5 4 7 16 3 14 -3 19 -2 14 6 -10 16
34 15 55 -1 18 -14 41 -91 38 -127 -2 -14 1 -35 5 -47 4 -13 3 -23 -2 -23 -5
0 -9 -13 -9 -30 0 -20 -10 -39 -31 -60 -18 -17 -32 -28 -32 -26 0 3 -26 -20
-57 -50 -38 -38 -63 -54 -75 -51 -11 3 -15 1 -12 -5 8 -12 -49 -64 -91 -82
-16 -8 -41 -23 -54 -35 -13 -11 -28 -18 -34 -14 -5 3 -7 1 -3 -5 3 -6 -11 -20
-31 -33 -21 -13 -40 -25 -43 -29 -12 -13 -141 -87 -248 -142 -64 -33 -121 -64
-126 -69 -6 -5 -18 -9 -28 -9 -10 0 -18 -4 -18 -9 0 -5 -28 -19 -62 -32 -63
-24 -68 -25 -89 -28 -5 0 -8 -5 -5 -10 5 -8 149 16 235 39 24 6 45 9 48 7 4
-4 -145 -54 -182 -61 -5 -1 -19 -5 -30 -9 -11 -3 -37 -8 -58 -12 -22 -3 -58
-9 -80 -14 -23 -6 -77 -15 -119 -22 -43 -7 -80 -18 -82 -26 -4 -9 4 -11 25 -9
16 2 28 -1 27 -6 -2 -5 -7 -9 -11 -9 -4 1 -19 1 -33 1 -21 0 -24 4 -19 20 6
19 2 20 -82 19 -102 -1 -336 10 -373 17 -16 4 -21 2 -15 -4 12 -11 173 -42
225 -43 19 0 44 -5 55 -10 26 -12 -98 -3 -223 17 -93 15 -290 68 -386 104 -28
11 -59 20 -68 20 -10 0 -18 4 -18 9 0 13 -58 19 -71 7 -9 -8 -10 -8 -5 1 10
18 -34 42 -66 36 -16 -3 -28 -9 -28 -14 0 -5 -7 -9 -15 -9 -8 0 -15 7 -15 16
0 8 4 13 9 10 5 -4 7 4 4 15 -6 20 -7 20 -19 -7 -7 -16 -13 -24 -13 -18 -1 7
-10 14 -20 17 -14 3 -18 1 -14 -9 3 -8 9 -14 14 -14 5 0 9 -4 9 -9 0 -5 -6 -9
-12 -8 -43 1 -72 -4 -60 -11 13 -9 6 -42 -8 -42 -16 0 -24 24 -21 62 1 21 -2
38 -7 38 -5 0 -7 -11 -5 -24 3 -13 0 -34 -7 -46 -8 -15 -8 -20 -1 -16 6 4 11
1 11 -8 0 -8 -4 -17 -9 -20 -5 -3 -7 -15 -4 -26 4 -13 0 -20 -9 -20 -29 0 -38
-21 -17 -43 12 -13 17 -28 13 -40 -4 -14 -2 -18 7 -15 8 3 15 13 17 24 1 10
14 24 27 30 21 10 23 10 12 -7 -6 -10 -15 -15 -21 -12 -5 4 -7 -1 -3 -10 4
-10 2 -17 -5 -17 -7 0 -7 -5 2 -14 6 -8 19 -13 28 -10 12 4 11 1 -3 -8 -11 -7
-20 -19 -21 -25 -4 -49 -4 -49 -14 -33 -6 8 -8 29 -5 45 6 28 5 29 -10 11 -8
-11 -15 -14 -15 -8 0 7 -5 12 -11 12 -6 0 -8 -7 -5 -16 4 -11 2 -15 -7 -11 -9
3 -13 -2 -12 -16 2 -12 8 -21 14 -19 6 1 11 -11 11 -28 0 -23 3 -28 18 -24 13
5 14 4 3 -4 -7 -5 -18 -16 -23 -23 -8 -11 -9 -10 -4 4 3 9 1 17 -5 17 -6 0 -8
9 -4 20 4 12 2 20 -6 20 -14 0 -5 -88 10 -103 5 -5 7 -16 4 -23 -3 -8 0 -14 6
-14 6 0 8 -7 4 -16 -3 -9 -8 -11 -12 -6 -4 6 -6 -12 -5 -39 1 -28 5 -53 8 -56
3 -4 6 -20 6 -36 0 -25 2 -28 15 -17 10 9 15 9 15 1 0 -6 -5 -11 -11 -11 -5 0
-8 -4 -5 -9 3 -5 -2 -8 -12 -7 -11 0 -16 -5 -14 -15 2 -12 -4 -16 -22 -15 -13
0 -22 4 -20 8 7 11 -23 123 -33 121 -6 -1 -8 9 -5 23 3 19 7 22 13 12 6 -9 9
-7 9 10 0 23 -23 31 -35 11 -4 -6 -13 -8 -21 -5 -8 3 -14 1 -14 -4 0 -6 -5
-10 -11 -10 -5 0 -7 4 -4 10 3 5 0 10 -7 11 -7 0 -4 4 7 8 11 5 23 4 26 -1 4
-6 18 -3 35 8 25 17 26 19 8 23 -28 5 -47 22 -35 34 5 5 4 19 -5 35 -13 26
-11 42 7 42 6 0 8 -4 5 -9 -11 -17 5 -43 19 -31 6 5 15 7 18 3 4 -3 7 -1 7 5
0 7 -3 12 -8 12 -4 0 -15 23 -25 50 -10 28 -22 50 -27 50 -5 0 -5 11 2 25 9
20 8 28 -4 42 -22 26 -30 53 -14 47 8 -3 16 4 19 15 3 12 1 21 -4 21 -5 0 -9
-5 -9 -11 0 -5 -5 -7 -10 -4 -6 4 -8 11 -5 16 10 16 -6 33 -17 18 -7 -10 -8
-8 -5 8 3 13 1 26 -5 29 -5 3 -7 12 -4 20 3 8 2 14 -2 14 -4 0 -13 9 -20 21
-8 12 -9 18 -4 15 6 -3 13 -1 15 4 3 6 4 5 3 -2 -1 -7 3 -19 10 -26 7 -7 10
-20 7 -29 -4 -11 -2 -14 8 -11 8 3 12 12 10 19 -2 8 -4 25 -6 39 -4 45 -5 50
-12 48 -5 -1 -18 2 -31 6 -18 6 -21 11 -12 21 7 8 9 19 5 26 -5 7 -1 10 11 7
13 -3 18 -11 17 -26 -2 -12 2 -22 7 -22 6 0 10 16 10 36 0 21 4 33 10 29 17
-11 11 7 -7 21 -25 19 -41 17 -48 -6 -3 -11 -14 -20 -23 -20 -14 0 -14 2 -3 9
8 5 10 14 6 21 -5 7 -4 11 1 7 5 -3 18 1 29 9 18 13 18 14 -6 14 -16 0 -26 6
-26 15 0 8 9 15 20 15 13 0 17 5 13 16 -3 8 -2 12 4 9 11 -7 13 6 4 29 -3 9
-12 16 -20 16 -8 0 -14 7 -14 16 0 8 -4 13 -9 10 -5 -4 -11 -2 -13 3 -1 5 -31
25 -66 45 -34 19 -60 31 -57 26 3 -6 1 -10 -4 -10 -6 0 -11 7 -11 15 0 8 -4
15 -10 15 -5 0 -10 -4 -10 -10 0 -5 -4 -10 -10 -10 -5 0 -7 6 -4 13 3 8 -3 13
-15 13 -13 0 -18 -7 -18 -23 0 -13 4 -20 10 -16 5 3 7 1 3 -5 -3 -6 -2 -22 4
-36 6 -17 6 -26 0 -26 -6 0 -10 10 -10 23 0 16 -3 18 -9 9 -6 -10 -11 -5 -19
18 -11 29 -13 30 -27 16 -9 -9 -15 -24 -14 -33 3 -25 -11 -53 -26 -53 -8 0
-17 -5 -21 -12 -5 -8 -2 -9 9 -5 11 4 23 -3 37 -20 17 -22 18 -28 6 -42 -7 -9
-11 -22 -9 -29 4 -11 1 -12 -16 -3 -20 11 -24 22 -24 64 0 9 -4 17 -9 17 -5 0
-8 6 -7 13 1 6 1 31 0 55 -1 40 -3 43 -23 36 -20 -6 -21 -5 -10 8 7 9 10 23 6
32 -3 9 -1 16 5 16 6 0 11 5 11 10 0 17 -28 11 -33 -7 -2 -10 -3 -5 -1 10 2
15 0 26 -5 23 -5 -3 -8 2 -8 12 0 43 -3 48 -18 28 -12 -16 -15 -17 -15 -4 0 9
8 19 18 23 16 6 16 7 -1 16 -15 9 -16 13 -5 27 10 12 10 14 0 8 -7 -4 -15 -1
-18 9 -4 9 -13 14 -20 11 -8 -3 -14 1 -14 10 0 9 -6 14 -12 11 -13 -4 -143 56
-253 116 -211 115 -474 206 -730 252 -49 9 -121 25 -160 35 -38 10 -83 21
-100 25 l-30 8 27 7 c18 5 90 -5 219 -31 235 -47 378 -88 504 -144 58 -26 125
-54 130 -55 3 0 22 -9 42 -20 50 -27 67 -25 23 2 -69 43 -216 114 -300 145
-156 57 -178 63 -595 145 -27 5 -55 14 -62 20 -7 5 -16 7 -21 5 -13 -9 -35 9
-28 22 4 6 15 11 24 11 16 1 16 1 0 10 -22 13 -51 1 -43 -17 4 -11 1 -13 -12
-8 -10 4 -31 9 -46 11 -49 7 -64 27 -27 37 11 3 20 11 20 17 0 7 -7 10 -16 6
-8 -3 -12 -2 -9 4 3 6 2 10 -3 10 -6 0 -15 -14 -21 -30 l-10 -31 -33 18 c-18
9 -36 17 -40 18 -3 0 -10 3 -14 7 -4 5 -16 8 -26 8 -10 0 -18 4 -18 10 0 5 -3
9 -7 9 -21 -3 -33 3 -33 17 0 10 6 14 15 10 25 -9 16 8 -11 21 -22 10 -24 10
-19 -8 5 -13 2 -19 -10 -19 -12 0 -15 6 -10 19 3 11 2 22 -3 25 -6 3 -12 -6
-15 -21 -3 -18 1 -31 14 -42 14 -12 16 -20 9 -31 -6 -10 -10 -11 -10 -2 0 6
-7 12 -15 12 -8 0 -15 4 -15 10 0 5 -7 7 -15 4 -10 -4 -15 0 -15 11 0 11 -5
15 -14 12 -18 -7 -60 28 -51 42 3 6 1 11 -4 11 -6 0 -11 -5 -11 -12 0 -9 -3
-9 -12 0 -7 7 -24 12 -40 12 -21 0 -26 4 -22 18 5 16 5 16 -9 0 -16 -21 -31
-24 -25 -6 4 12 -8 30 -53 78 -19 21 -30 25 -42 18 -11 -6 -17 -5 -17 2 0 5
-5 10 -10 10 -6 0 -4 -12 4 -29 9 -16 13 -31 10 -34 -9 -8 -35 4 -29 13 3 5 1
19 -5 32 l-10 23 2 -25 c1 -14 -2 -31 -6 -39 -6 -9 -5 -12 1 -8 6 4 9 -8 7
-33 -1 -22 1 -40 6 -40 4 0 6 -9 3 -20 -4 -16 -2 -19 11 -14 21 8 20 -5 -1
-22 -16 -12 -16 -15 -3 -23 12 -8 12 -13 2 -23 -9 -9 -12 -9 -12 5 0 28 -34
13 -35 -15 0 -5 -4 -7 -10 -5 -5 1 -8 13 -6 27 3 21 1 22 -13 11 -9 -8 -16 -9
-16 -3 0 6 5 12 12 14 8 3 9 11 3 24 -11 25 -13 64 -3 58 10 -6 10 -6 -1 34
-6 20 -6 30 0 27 5 -4 9 2 9 12 0 11 3 23 8 29 4 5 -3 -1 -16 -14 -13 -12 -28
-20 -33 -16 -5 3 -16 0 -24 -6 -11 -9 -15 -9 -15 -1 0 6 5 11 10 11 18 0 6 54
-15 67 -11 7 -14 12 -7 13 7 0 10 4 7 10 -3 5 -2 10 3 10 10 0 32 -44 32 -65
0 -8 5 -17 12 -21 8 -5 9 -2 5 9 -3 10 -2 17 3 17 6 0 10 9 10 20 0 13 -5 18
-15 14 -8 -4 -15 -1 -15 5 0 6 5 11 11 11 5 0 7 5 4 10 -4 6 -12 7 -18 3 -7
-4 -6 1 2 11 11 13 12 19 2 29 -10 9 -12 9 -9 -3 2 -9 -6 -16 -20 -18 -20 -3
-23 0 -17 17 4 12 2 21 -4 21 -6 0 -11 -6 -11 -12 0 -10 -2 -10 -8 0 -6 9 -13
7 -29 -7 -21 -19 -21 -19 -19 14 0 18 5 37 9 42 5 4 8 3 7 -2 -1 -6 -2 -18 -1
-28 1 -16 3 -17 16 -3 17 16 20 30 6 21 -6 -3 -6 6 -1 25 6 20 5 30 -2 30 -5
0 -7 8 -4 17 5 11 -2 24 -20 40 -15 13 -28 23 -28 23 -5 0 2 -59 8 -68 4 -7 3
-12 -3 -12 -6 0 -8 -7 -4 -16 5 -13 7 -13 14 -2 6 9 9 9 9 1 0 -18 -14 -22
-32 -9 -18 13 -20 66 -3 79 6 6 5 10 -3 14 -10 4 -9 8 5 19 17 13 17 13 1 14
-10 0 -18 7 -18 16 0 9 -9 18 -20 21 -21 6 -28 23 -9 23 5 0 8 4 4 10 -3 5
-12 7 -20 3 -10 -3 -15 2 -15 16 0 12 -9 31 -19 42 -11 12 -22 36 -26 56 -5
26 -9 32 -18 24 -17 -13 -31 -2 -34 27 -4 29 -47 94 -57 84 -4 -4 -7 -2 -5 3
1 6 -3 23 -9 38 -7 16 -12 31 -12 35 0 4 -11 23 -24 43 -13 19 -30 55 -37 78
-7 25 -20 46 -30 48 -11 3 -19 19 -23 44 -4 24 -13 43 -24 47 -9 4 -17 13 -18
20 -1 6 -2 26 -2 43 -1 19 -6 28 -13 23 -18 -11 -27 15 -17 45 7 18 6 35 -3
56 -7 17 -14 44 -16 60 -1 17 -9 53 -17 80 -22 78 -56 229 -56 249 0 13 -5 16
-16 12 -14 -5 -15 -4 -5 8 7 8 10 20 7 25 -4 6 -7 26 -8 46 -1 19 -4 35 -8 35
-4 0 -8 28 -9 62 -1 33 -4 64 -6 68 -3 5 -5 35 -6 69 -1 34 -4 61 -8 61 -3 0
-6 51 -7 113 -1 146 -7 217 -16 223 -4 3 -8 0 -8 -7 0 -16 -13 -3 -16 15 -1 9
5 12 18 8 18 -4 19 -3 7 16 -10 15 -16 18 -21 9 -6 -9 -8 -9 -8 0 0 6 5 15 10
18 6 4 8 16 5 28 -2 12 -2 16 1 10 9 -21 23 -15 17 7 -3 11 -1 33 5 49 9 26 8
29 -5 24 -12 -5 -14 -3 -8 6 6 10 2 11 -16 6 -19 -6 -17 -1 14 25 35 31 37 34
21 51 -9 10 -21 16 -25 13 -5 -3 -9 0 -9 5 0 6 -6 11 -13 11 -7 0 -13 8 -13
18 0 14 6 17 30 14 22 -4 27 -2 21 8 -6 10 -4 12 10 6 15 -5 16 -4 5 8 -10 13
-9 19 4 31 20 21 20 25 -2 41 -16 13 -16 13 1 14 15 0 18 7 15 30 -1 17 2 34
9 38 9 6 15 27 28 102 1 8 6 23 10 34 4 10 8 31 9 47 1 16 4 29 7 29 3 0 11
26 18 58 14 64 109 361 121 377 4 6 10 23 14 38 5 22 4 27 -6 21 -13 -8 9 25
24 36 10 8 78 139 78 150 0 6 15 32 33 58 18 26 48 77 67 115 19 37 37 67 41
67 9 0 24 41 21 53 -1 5 2 6 8 2 5 -3 10 -1 10 4 0 6 7 11 15 11 8 0 14 3 13
8 -3 9 53 95 69 105 7 4 13 15 13 22 0 8 7 15 17 15 9 0 14 3 11 6 -3 3 4 16
16 29 64 71 88 95 141 140 32 28 63 55 69 60 42 40 262 198 326 233 61 34 159
82 168 82 5 0 17 9 27 20 10 11 25 20 34 20 20 0 131 38 146 50 6 4 24 11 42
14 26 6 31 12 29 32 -2 13 -6 27 -9 30 -8 8 1 24 14 24 5 0 9 -11 9 -24 0 -14
5 -28 11 -31 18 -12 20 1 4 31 -17 34 -19 48 -5 39 6 -3 10 -15 10 -26 0 -16
6 -19 34 -16 19 2 46 11 60 20 14 9 32 17 40 17 8 0 18 5 21 10 10 17 25 11
36 -14 10 -22 13 -23 52 -11 39 11 63 35 35 35 -7 0 -3 8 10 18 l23 18 -27 13
c-29 13 -43 6 -49 -25 -2 -11 -4 -21 -4 -23 -3 -15 -39 51 -44 80 -5 32 -3 36
13 32 10 -3 21 0 24 6 10 15 31 14 46 -3z m-690 -16 c13 -8 13 -10 -2 -10 -9
0 -20 5 -23 10 -8 13 5 13 25 0z m924 -5 c3 -9 0 -15 -9 -15 -8 0 -15 7 -15
15 0 8 4 15 9 15 5 0 11 -7 15 -15z m-333 -14 c9 -65 7 -68 -50 -92 -31 -13
-60 -24 -66 -24 -5 0 -16 -4 -22 -8 -14 -9 -16 5 -7 40 7 27 24 21 24 -8 0
-20 1 -20 31 -2 19 11 25 19 16 21 -8 2 -15 13 -15 25 0 12 -1 29 -3 37 -3 10
3 15 18 15 11 0 24 3 28 6 7 8 45 0 46 -10z m979 -5 c0 -17 -14 -29 -23 -20
-8 8 3 34 14 34 5 0 9 -6 9 -14z m-156 -12 c9 -22 -3 -32 -14 -14 -12 19 -12
30 -1 30 5 0 12 -7 15 -16z m-52 -19 c3 -15 1 -25 -7 -25 -9 0 -12 28 -6 48 3
9 9 -2 13 -23z m-347 5 c3 -5 2 -10 -4 -10 -5 0 -13 5 -16 10 -3 6 -2 10 4 10
5 0 13 -4 16 -10z m-755 -4 c0 -9 -30 -14 -35 -6 -4 6 3 10 14 10 12 0 21 -2
21 -4z m980 -36 c0 -5 -4 -10 -10 -10 -5 0 -10 5 -10 10 0 6 5 10 10 10 6 0
10 -4 10 -10z m283 -10 c-4 -15 -9 -18 -18 -10 -7 6 -17 10 -21 9 -21 -3 -35
2 -29 11 3 6 21 10 40 10 28 0 32 -3 28 -20z m82 -20 c-3 -5 -10 -10 -16 -10
-5 0 -9 5 -9 10 0 6 7 10 16 10 8 0 12 -4 9 -10z m-35 -26 c0 -8 -5 -14 -11
-14 -5 0 -7 5 -4 10 3 6 1 10 -4 10 -6 0 -11 4 -11 10 0 5 7 7 15 4 8 -4 15
-12 15 -20z m-1640 -44 c0 -5 -8 -10 -17 -10 -15 0 -16 2 -3 10 19 12 20 12
20 0z m-80 -130 c8 -5 11 -10 5 -10 -5 0 -17 5 -25 10 -8 5 -10 10 -5 10 6 0
17 -5 25 -10z m-322 -372 c-2 -6 -10 -14 -16 -16 -7 -2 -10 2 -6 12 7 18 28
22 22 4z m-168 -129 c0 -6 -4 -7 -10 -4 -5 3 -10 11 -10 16 0 6 5 7 10 4 6 -3
10 -11 10 -16z m3450 -139 c0 -5 -2 -10 -4 -10 -3 0 -8 5 -11 10 -3 6 -1 10 4
10 6 0 11 -4 11 -10z m190 -10 c0 -5 -2 -10 -4 -10 -3 0 -8 5 -11 10 -3 6 -1
10 4 10 6 0 11 -4 11 -10z m-190 -18 c0 -4 -9 -8 -20 -9 -11 -1 -18 2 -15 8 7
11 35 12 35 1z m30 -101 c0 -5 -7 -14 -15 -21 -16 -14 -18 -10 -9 14 6 17 24
22 24 7z m193 -483 c4 -12 5 -23 4 -25 -7 -7 -47 29 -42 38 11 17 33 9 38 -13z
m17 -54 c0 -2 -7 -4 -15 -4 -8 0 -15 4 -15 10 0 5 7 7 15 4 8 -4 15 -8 15 -10z
m67 -183 c11 -31 8 -41 -14 -41 -9 0 -12 11 -10 35 3 43 9 44 24 6z m-4412
-571 c3 -5 2 -10 -4 -10 -5 0 -13 5 -16 10 -3 6 -2 10 4 10 5 0 13 -4 16 -10z
m14 -89 c9 -6 10 -11 2 -15 -13 -8 -31 1 -31 15 0 11 11 11 29 0z m5496 -371
c3 -5 1 -10 -4 -10 -6 0 -11 5 -11 10 0 6 2 10 4 10 3 0 8 -4 11 -10z m-630
-70 c3 -5 1 -10 -4 -10 -6 0 -11 5 -11 10 0 6 2 10 4 10 3 0 8 -4 11 -10z
m-205 -230 c0 -5 -7 -10 -16 -10 -8 0 -12 5 -9 10 3 6 10 10 16 10 5 0 9 -4 9
-10z m40 -50 c0 -13 -11 -13 -30 0 -12 8 -11 10 8 10 12 0 22 -4 22 -10z
m-406 -331 c-3 -5 -10 -7 -15 -3 -5 3 -7 10 -3 15 3 5 10 7 15 3 5 -3 7 -10 3
-15z m-14 -29 c0 -5 -4 -10 -10 -10 -5 0 -10 5 -10 10 0 6 5 10 10 10 6 0 10
-4 10 -10z m230 -35 c0 -8 -2 -15 -4 -15 -2 0 -6 7 -10 15 -3 8 -1 15 4 15 6
0 10 -7 10 -15z m-160 -90 c0 -11 -31 -11 -39 -1 -9 10 -6 12 14 8 14 -2 25
-6 25 -7z m-45 -25 c-3 -5 -11 -10 -16 -10 -6 0 -7 5 -4 10 3 6 11 10 16 10 6
0 7 -4 4 -10z m866 -30 c5 0 9 -4 9 -9 0 -15 -39 -8 -45 7 -4 10 0 12 11 8 8
-3 20 -6 25 -6z m-959 -76 c5 -7 4 -14 -4 -17 -9 -3 -14 6 -15 27 0 17 1 24 4
16 3 -8 10 -20 15 -26z m119 -17 c-8 -8 -11 -7 -11 4 0 20 13 34 18 19 3 -7
-1 -17 -7 -23z m3 -40 c-3 -8 -12 -18 -20 -21 -11 -4 -11 0 2 20 18 26 28 27
18 1z m83 -39 c-3 -8 -6 -5 -6 6 -1 11 2 17 5 13 3 -3 4 -12 1 -19z m-7 -63
c-11 -12 -18 -29 -15 -37 4 -9 1 -19 -6 -24 -9 -5 -10 -2 -6 9 4 10 2 17 -5
17 -7 0 -5 7 4 18 8 9 18 25 21 35 4 10 12 15 18 12 7 -5 3 -15 -11 -30z m-50
-150 c0 -5 -5 -3 -10 5 -5 8 -10 20 -10 25 0 6 5 3 10 -5 5 -8 10 -19 10 -25z
m-3823 -490 c6 -14 9 -25 5 -25 -9 0 -42 32 -42 42 0 18 26 6 37 -17z m37 -77
c-9 -31 -12 -34 -26 -20 -8 8 -8 15 2 27 19 22 32 18 24 -7z m96 -68 c0 -5 -4
-12 -10 -15 -5 -3 -10 -4 -10 -1 0 2 -3 12 -6 20 -5 12 -2 15 10 10 9 -3 16
-10 16 -14z m-76 -82 c19 -20 27 -58 10 -51 -8 3 -14 14 -14 24 0 10 -4 19
-10 19 -5 0 -10 5 -10 10 0 14 9 13 24 -2z m116 -85 c0 -13 -3 -13 -15 -3 -8
7 -12 16 -9 21 8 13 24 1 24 -18z m-10 -35 c0 -6 -6 -5 -15 2 -8 7 -15 14 -15
16 0 2 7 1 15 -2 8 -4 15 -11 15 -16z m-130 -33 c0 -9 -6 -12 -16 -8 -13 5
-13 7 -2 14 17 11 18 11 18 -6z m60 -5 c0 -5 -2 -10 -4 -10 -3 0 -8 5 -11 10
-3 6 -1 10 4 10 6 0 11 -4 11 -10z m310 -10 c0 -5 -4 -10 -10 -10 -5 0 -10 5
-10 10 0 6 5 10 10 10 6 0 10 -4 10 -10z m-260 -31 c0 -6 -4 -7 -10 -4 -5 3
-10 11 -10 16 0 6 5 7 10 4 6 -3 10 -11 10 -16z m-27 -9 c3 -11 2 -20 -3 -20
-4 0 -10 9 -13 20 -3 11 -2 20 3 20 4 0 10 -9 13 -20z m247 -31 c0 -4 -7 -6
-15 -3 -8 4 -15 10 -15 15 0 4 7 6 15 3 8 -4 15 -10 15 -15z m-120 1 c0 -5 -4
-10 -9 -10 -6 0 -13 5 -16 10 -3 6 1 10 9 10 9 0 16 -4 16 -10z m-6 -35 c3 -8
1 -15 -4 -15 -6 0 -10 7 -10 15 0 8 2 15 4 15 2 0 6 -7 10 -15z m251 -24 c-6
-5 -25 10 -25 20 0 5 6 4 14 -3 8 -7 12 -15 11 -17z m45 8 c0 -6 -4 -7 -10 -4
-5 3 -10 11 -10 16 0 6 5 7 10 4 6 -3 10 -11 10 -16z m-420 -9 c0 -5 -5 -10
-11 -10 -5 0 -7 5 -4 10 3 6 8 10 11 10 2 0 4 -4 4 -10z m450 6 c0 -3 -4 -8
-10 -11 -5 -3 -10 -1 -10 4 0 6 5 11 10 11 6 0 10 -2 10 -4z m-410 -30 c0 -9
-30 -14 -35 -6 -4 6 3 10 14 10 12 0 21 -2 21 -4z m380 -6 c0 -5 -2 -10 -4
-10 -3 0 -8 5 -11 10 -3 6 -1 10 4 10 6 0 11 -4 11 -10z m-90 -14 c0 -11 -19
-15 -25 -6 -3 5 1 10 9 10 9 0 16 -2 16 -4z m349 -20 l24 -14 -22 -7 c-23 -7
-55 11 -45 26 7 12 14 11 43 -5z m56 -26 c18 -19 17 -20 -3 -20 -15 0 -22 6
-22 20 0 11 2 20 3 20 2 0 12 -9 22 -20z m-585 0 c0 -5 -2 -10 -4 -10 -3 0 -8
5 -11 10 -3 6 -1 10 4 10 6 0 11 -4 11 -10z m130 0 c0 -5 -2 -10 -4 -10 -3 0
-8 5 -11 10 -3 6 -1 10 4 10 6 0 11 -4 11 -10z m-30 -14 c0 -3 -4 -8 -10 -11
-5 -3 -10 -1 -10 4 0 6 5 11 10 11 6 0 10 -2 10 -4z m577 -22 c12 -8 33 -14
46 -14 14 0 30 -6 37 -14 6 -8 17 -13 24 -10 20 8 66 -14 66 -32 0 -9 -6 -14
-12 -11 -7 2 -44 14 -83 27 -38 12 -83 29 -100 38 -16 9 -32 15 -35 14 -3 -2
-7 4 -8 13 -3 13 1 15 20 10 12 -4 33 -13 45 -21z m-712 6 c3 -6 -1 -7 -9 -4
-18 7 -21 14 -7 14 6 0 13 -4 16 -10z m40 0 c3 -5 1 -10 -4 -10 -6 0 -11 5
-11 10 0 6 2 10 4 10 3 0 8 -4 11 -10z m45 -10 c0 -5 -4 -10 -10 -10 -5 0 -10
5 -10 10 0 6 5 10 10 10 6 0 10 -4 10 -10z m-29 -53 c-10 -9 -11 -8 -5 6 3 10
9 15 12 12 3 -3 0 -11 -7 -18z m40 -47 c-9 -22 -10 -20 -6 15 5 50 7 55 12 30
2 -12 -1 -32 -6 -45z m-1 -108 c0 -15 -2 -15 -10 -2 -13 20 -13 33 0 25 6 -3
10 -14 10 -23z m-30 -122 c0 -5 -2 -10 -4 -10 -3 0 -8 5 -11 10 -3 6 -1 10 4
10 6 0 11 -4 11 -10z m4775 -80 c-3 -5 -11 -10 -16 -10 -6 0 -7 5 -4 10 3 6
11 10 16 10 6 0 7 -4 4 -10z m-695 -75 c-7 -8 -17 -12 -22 -9 -5 3 -1 12 9 19
22 17 30 11 13 -10z m-1890 -197 c0 -13 -23 -5 -28 10 -2 7 2 10 12 6 9 -3 16
-11 16 -16z m20 -77 c0 -6 -5 -13 -12 -17 -6 -4 -8 -3 -4 4 3 6 -2 13 -11 15
-14 4 -13 5 5 6 12 0 22 -3 22 -8z m220 -15 c0 -3 -4 -8 -10 -11 -5 -3 -10 -1
-10 4 0 6 5 11 10 11 6 0 10 -2 10 -4z m45 -39 c19 -4 19 -5 -1 -6 -12 0 -28
7 -35 17 -12 15 -12 16 1 6 8 -7 24 -14 35 -17z m-265 -18 c0 -14 -17 -10 -23
5 -4 10 -1 13 9 9 7 -3 14 -9 14 -14z m160 10 c0 -5 -5 -7 -12 -3 -6 4 -8 3
-5 -3 8 -13 -19 -37 -32 -28 -6 3 -4 13 7 25 19 20 42 26 42 9z m105 -19 c3
-5 1 -10 -4 -10 -6 0 -11 5 -11 10 0 6 2 10 4 10 3 0 8 -4 11 -10z m-91 -16
c8 -21 8 -24 -5 -24 -5 0 -7 5 -4 10 3 6 1 10 -4 10 -6 0 -11 -5 -11 -12 0 -6
-2 -9 -5 -6 -7 7 5 38 15 38 4 0 11 -7 14 -16z m66 6 c0 -5 -2 -10 -4 -10 -3
0 -8 5 -11 10 -3 6 -1 10 4 10 6 0 11 -4 11 -10z m100 -21 c0 -4 -7 -6 -15 -3
-8 4 -15 10 -15 15 0 4 7 6 15 3 8 -4 15 -10 15 -15z m40 11 c0 -5 -5 -10 -11
-10 -5 0 -7 5 -4 10 3 6 8 10 11 10 2 0 4 -4 4 -10z m-345 -10 c3 -5 1 -10 -4
-10 -6 0 -11 5 -11 10 0 6 2 10 4 10 3 0 8 -4 11 -10z m362 -22 c-3 -8 -6 -5
-6 6 -1 11 2 17 5 13 3 -3 4 -12 1 -19z m-192 2 c3 -5 1 -10 -4 -10 -6 0 -11
5 -11 10 0 6 2 10 4 10 3 0 8 -4 11 -10z m45 -11 c0 -11 -4 -18 -10 -14 -5 3
-7 12 -3 20 7 21 13 19 13 -6z m40 1 c0 -5 -5 -10 -11 -10 -5 0 -7 5 -4 10 3
6 8 10 11 10 2 0 4 -4 4 -10z m90 -38 c0 -27 -15 -52 -32 -52 -5 0 -1 11 8 25
9 14 14 32 10 40 -3 8 -1 15 4 15 6 0 10 -13 10 -28z m-197 -16 c-3 -4 -9 -2
-14 5 -13 22 -11 31 5 17 8 -7 12 -17 9 -22z m167 -6 c0 -5 -2 -10 -4 -10 -3
0 -8 5 -11 10 -3 6 -1 10 4 10 6 0 11 -4 11 -10z m-266 -25 c-4 -10 0 -15 15
-15 12 0 21 -4 21 -10 0 -5 -6 -7 -14 -4 -20 8 -28 -10 -16 -40 5 -15 6 -28 0
-31 -5 -3 -6 -13 -3 -22 4 -11 2 -14 -8 -11 -22 7 -20 148 2 148 5 0 6 -7 3
-15z m133 9 c-3 -3 -12 -4 -19 -1 -8 3 -5 6 6 6 11 1 17 -2 13 -5z m227 -9
c-4 -8 -11 -15 -16 -15 -6 0 -5 6 2 15 7 8 14 15 16 15 2 0 1 -7 -2 -15z
m-245 -39 c-3 -3 -11 5 -18 17 -13 21 -12 21 5 5 10 -10 16 -20 13 -22z m83
20 c22 14 1 -20 -22 -35 -22 -15 -24 -15 -17 2 4 10 2 17 -6 17 -7 0 -3 7 8
16 12 9 21 11 23 4 2 -5 8 -7 14 -4z m103 -76 c0 -60 -8 -77 -20 -41 -4 14
-12 18 -23 14 -10 -4 -6 4 10 19 29 28 26 48 -4 21 -14 -13 -18 -13 -18 -2 0
8 12 21 28 31 15 9 27 17 27 17 1 1 1 -26 0 -59z m-230 17 c4 4 5 2 1 -5 -5
-9 -12 -9 -27 -2 -20 11 -24 22 -12 34 4 3 12 -3 18 -14 6 -11 15 -17 20 -13z
m81 -11 c2 -14 0 -15 -12 -5 -17 14 -19 32 -2 27 6 -2 12 -12 14 -22z m39 5
c-3 -6 -11 -11 -16 -11 -5 0 -4 6 3 14 14 16 24 13 13 -3z m150 -11 c3 -5 1
-10 -4 -10 -6 0 -11 5 -11 10 0 6 2 10 4 10 3 0 8 -4 11 -10z m-137 -28 c2 -7
-1 -12 -8 -12 -6 0 -9 4 -6 9 4 5 1 12 -4 14 -6 3 -5 4 2 3 6 -1 14 -8 16 -14z
m582 -22 c0 -5 -2 -10 -4 -10 -3 0 -8 5 -11 10 -3 6 -1 10 4 10 6 0 11 -4 11
-10z m-775 -20 c-3 -5 -10 -10 -16 -10 -5 0 -9 5 -9 10 0 6 7 10 16 10 8 0 12
-4 9 -10z m682 4 c-3 -3 -12 -4 -19 -1 -8 3 -5 6 6 6 11 1 17 -2 13 -5z m-347
-33 c7 -15 7 -22 -2 -27 -7 -4 -10 -3 -5 1 4 5 0 17 -10 27 -9 10 -11 18 -5
18 6 0 16 -9 22 -19z m-30 -6 c11 -13 10 -14 -4 -9 -9 3 -16 10 -16 15 0 13 6
11 20 -6z m293 -85 c-3 -3 -8 1 -10 8 -7 19 -20 14 -27 -10 -5 -19 -8 -21 -16
-8 -14 22 -12 27 11 33 11 3 23 16 27 29 5 21 7 19 13 -12 4 -19 5 -37 2 -40z
m-263 30 c0 -5 -2 -10 -4 -10 -3 0 -8 5 -11 10 -3 6 -1 10 4 10 6 0 11 -4 11
-10z m1740 -10 c0 -5 -5 -10 -11 -10 -5 0 -7 5 -4 10 3 6 8 10 11 10 2 0 4 -4
4 -10z m-160 -32 c0 -13 -23 -5 -28 10 -2 7 2 10 12 6 9 -3 16 -11 16 -16z
m-156 6 c24 -9 19 -24 -8 -22 -15 1 -22 7 -19 15 6 15 6 15 27 7z m-44 -14 c0
-5 -4 -10 -9 -10 -6 0 -13 5 -16 10 -3 6 1 10 9 10 9 0 16 -4 16 -10z m-43 -6
c-3 -3 -12 -4 -19 -1 -8 3 -5 6 6 6 11 1 17 -2 13 -5z m-1272 -45 c11 -17 -1
-21 -15 -4 -8 9 -8 15 -2 15 6 0 14 -5 17 -11z m-6 -85 c12 8 34 -11 27 -23
-12 -18 -46 6 -45 32 1 17 2 18 6 4 2 -9 8 -15 12 -13z m161 11 c0 -8 -2 -15
-4 -15 -2 0 -6 7 -10 15 -3 8 -1 15 4 15 6 0 10 -7 10 -15z m-200 -25 c0 -5
-5 -10 -11 -10 -5 0 -7 5 -4 10 3 6 8 10 11 10 2 0 4 -4 4 -10z m25 -62 c-3
-30 -2 -39 5 -28 6 9 10 10 10 3 0 -6 -4 -14 -9 -17 -13 -8 -32 19 -26 38 3 9
7 23 10 31 9 29 14 15 10 -27z m262 20 c-3 -8 -6 -5 -6 6 -1 11 2 17 5 13 3
-3 4 -12 1 -19z m-40 -18 c-1 -21 -10 -18 -13 5 -1 8 2 15 6 15 5 0 8 -9 7
-20z m-44 -25 c-3 -8 -10 -15 -15 -15 -7 0 -6 5 1 13 6 8 7 18 3 22 -4 5 -2 5
5 1 7 -4 10 -13 6 -21z m22 -32 c-22 -16 -35 -17 -35 -3 0 6 7 10 15 10 8 0
15 5 15 11 0 5 5 7 12 3 7 -5 5 -11 -7 -21z m2 -19 c-3 -3 -2 -17 3 -30 7 -17
6 -24 -3 -24 -6 0 -12 14 -13 30 -1 17 3 30 9 30 6 0 8 -3 4 -6z m-227 -24 c0
-5 -4 -10 -10 -10 -5 0 -10 5 -10 10 0 6 5 10 10 10 6 0 10 -4 10 -10z m248
-65 c-3 -3 -9 2 -12 12 -6 14 -5 15 5 6 7 -7 10 -15 7 -18z m-185 -8 c4 3 7 1
7 -6 0 -17 -32 -10 -38 9 -4 12 -3 13 10 3 8 -7 18 -10 21 -6z m156 -16 c9 -6
10 -11 2 -15 -6 -4 -11 -3 -11 3 0 6 -7 8 -15 5 -8 -4 -15 -1 -15 5 0 13 20
14 39 2z m51 -61 c0 -5 -2 -10 -4 -10 -3 0 -8 5 -11 10 -3 6 -1 10 4 10 6 0
11 -4 11 -10z m-30 -55 c0 -5 -5 -3 -10 5 -5 8 -10 20 -10 25 0 6 5 3 10 -5 5
-8 10 -19 10 -25z m-67 -55 c5 0 7 -3 4 -6 -4 -4 -12 -2 -19 4 -10 8 -13 -6
-12 -69 0 -43 -3 -79 -7 -79 -4 0 -8 8 -8 18 -1 9 -3 46 -6 81 -2 37 0 72 7
85 11 21 12 20 21 -7 5 -15 14 -27 20 -27z m142 -10 c3 -5 1 -10 -4 -10 -6 0
-11 5 -11 10 0 6 2 10 4 10 3 0 8 -4 11 -10z m-125 -36 c0 -8 -5 -12 -10 -9
-6 4 -8 11 -5 16 9 14 15 11 15 -7z m100 -8 c0 -3 -4 -8 -10 -11 -5 -3 -10 -1
-10 4 0 6 5 11 10 11 6 0 10 -2 10 -4z"/>
<path d="M3240 8293 c8 -3 18 -12 23 -19 8 -14 37 -8 37 7 0 4 -7 6 -15 3 -8
-4 -15 -1 -15 5 0 6 -10 11 -22 10 -15 0 -18 -2 -8 -6z"/>
<path d="M3870 8260 c0 -5 5 -10 11 -10 5 0 7 5 4 10 -3 6 -8 10 -11 10 -2 0
-4 -4 -4 -10z"/>
<path d="M3040 8245 c0 -9 6 -12 15 -9 8 4 15 7 15 9 0 2 -7 5 -15 9 -9 3 -15
0 -15 -9z"/>
<path d="M3258 8213 c7 -3 16 -2 19 1 4 3 -2 6 -13 5 -11 0 -14 -3 -6 -6z"/>
<path d="M3660 8186 c0 -14 5 -26 10 -26 6 0 10 9 10 19 0 11 -4 23 -10 26 -6
4 -10 -5 -10 -19z"/>
<path d="M2950 8151 c0 -5 9 -7 20 -4 11 3 20 7 20 9 0 2 -9 4 -20 4 -11 0
-20 -4 -20 -9z"/>
<path d="M2903 8140 c-13 -5 -23 -12 -23 -15 0 -10 27 -5 46 10 21 16 11 18
-23 5z"/>
<path d="M3670 8130 c0 -6 7 -10 15 -10 8 0 15 2 15 4 0 2 -7 6 -15 10 -8 3
-15 1 -15 -4z"/>
<path d="M2830 8109 c0 -5 5 -7 10 -4 6 3 10 8 10 11 0 2 -4 4 -10 4 -5 0 -10
-5 -10 -11z"/>
<path d="M3645 8110 c3 -5 8 -10 11 -10 2 0 4 5 4 10 0 6 -5 10 -11 10 -5 0
-7 -4 -4 -10z"/>
<path d="M4247 8089 c7 -7 15 -10 18 -7 3 3 -2 9 -12 12 -14 6 -15 5 -6 -5z"/>
<path d="M2740 8083 c-8 -3 -48 -21 -89 -40 -40 -19 -84 -38 -97 -43 -13 -5
-24 -14 -24 -19 0 -5 26 3 58 19 97 47 150 70 161 70 5 0 13 5 16 10 7 11 -1
12 -25 3z"/>
<path d="M3690 8066 c0 -2 7 -7 16 -10 8 -3 12 -2 9 4 -6 10 -25 14 -25 6z"/>
<path d="M4294 8061 c4 -6 16 -11 27 -11 10 0 19 -3 19 -8 0 -4 19 -15 42 -25
23 -10 61 -32 84 -48 23 -16 47 -29 53 -29 6 0 11 -4 11 -8 0 -5 10 -13 23
-19 51 -24 212 -154 353 -289 30 -28 54 -49 54 -47 0 2 11 -8 25 -22 13 -15
29 -25 36 -23 12 4 -106 128 -201 213 -91 81 -255 195 -345 240 -22 11 -41 23
-43 28 -2 4 -10 7 -17 7 -8 0 -29 9 -47 19 -44 25 -83 37 -74 22z"/>
<path d="M3577 8000 c3 -11 7 -20 9 -20 2 0 4 9 4 20 0 11 -4 20 -9 20 -5 0
-7 -9 -4 -20z"/>
<path d="M2456 7945 c-20 -14 -40 -25 -43 -25 -3 0 -21 -11 -39 -25 -18 -14
-37 -25 -43 -25 -6 0 -11 -4 -11 -10 0 -16 8 -13 94 40 116 71 114 70 95 70
-9 0 -33 -11 -53 -25z"/>
<path d="M3570 7915 c0 -18 4 -23 15 -19 8 4 15 1 15 -4 0 -6 -7 -17 -15 -26
-8 -8 -15 -26 -15 -39 0 -15 -10 -31 -25 -41 -14 -9 -25 -22 -25 -28 0 -6 8
-4 18 5 10 10 23 17 29 17 13 0 29 43 32 83 0 10 11 22 24 27 l22 9 -22 0
c-16 1 -23 7 -23 21 0 11 -7 20 -15 20 -9 0 -15 -9 -15 -25z"/>
<path d="M3116 7905 c-9 -26 -7 -32 5 -12 6 10 9 21 6 23 -2 3 -7 -2 -11 -11z"/>
<path d="M2570 7876 c0 -17 28 -41 37 -33 3 4 12 2 20 -5 7 -6 16 -8 20 -5 3
4 -6 12 -21 18 -14 7 -26 16 -26 20 0 4 -7 9 -15 13 -9 3 -15 0 -15 -8z"/>
<path d="M2263 7818 c-13 -6 -23 -15 -23 -20 0 -10 36 7 45 22 7 12 7 12 -22
-2z"/>
<path d="M2670 7814 c1 -15 26 -44 39 -44 7 0 9 -5 5 -12 -5 -7 -3 -8 5 -3 10
5 8 11 -6 24 -10 9 -24 22 -30 30 -7 8 -13 11 -13 5z"/>
<path d="M3490 7721 c0 -11 -3 -26 -6 -34 -3 -8 2 -21 10 -29 8 -9 12 -24 9
-37 -3 -11 -1 -27 5 -34 8 -9 4 -18 -13 -33 -13 -12 -27 -18 -32 -14 -14 13
-65 22 -58 10 3 -5 1 -10 -4 -10 -6 0 -11 7 -11 15 0 9 -9 15 -25 15 -14 0
-28 1 -32 1 -5 1 -13 -9 -20 -22 l-12 -23 -12 27 c-10 22 -19 27 -51 27 -21 0
-38 -4 -38 -9 0 -5 -45 -9 -101 -9 -84 0 -101 3 -107 17 -5 13 -7 12 -12 -7
-3 -13 -9 -23 -15 -23 -5 0 -18 -7 -27 -16 -12 -10 -27 -14 -47 -10 -20 4 -37
0 -53 -12 -13 -11 -62 -41 -110 -68 -47 -28 -105 -68 -128 -89 -23 -21 -48
-43 -56 -47 -16 -9 -19 -37 -4 -37 6 0 10 -4 10 -9 0 -10 -19 -9 -37 2 -19 12
-23 -7 -8 -36 11 -22 11 -25 -1 -20 -8 3 -14 9 -14 14 0 5 -5 9 -11 9 -6 0 -9
-7 -6 -14 4 -9 -1 -17 -12 -21 -11 -3 -21 -15 -25 -27 -3 -12 -8 -19 -12 -15
-8 7 -46 -48 -50 -73 -2 -8 5 -23 14 -34 16 -18 16 -18 -5 -7 -18 9 -24 8 -31
-5 -5 -9 -7 -25 -5 -35 3 -11 0 -19 -6 -19 -7 0 -10 -3 -7 -8 2 -4 -2 -16 -10
-27 -13 -18 -14 -18 -14 5 0 23 -1 23 -14 5 -8 -11 -12 -29 -10 -42 3 -16 0
-21 -9 -17 -16 6 -51 -43 -50 -69 1 -10 -7 -23 -18 -30 -10 -6 -19 -18 -19
-26 0 -11 3 -12 11 -4 22 22 38 4 27 -28 -5 -16 -14 -26 -19 -23 -5 3 -17 0
-26 -5 -17 -10 -17 -10 1 -11 15 0 17 -6 14 -32 -4 -24 0 -37 16 -51 15 -13
16 -17 5 -14 -23 7 -49 -40 -30 -53 19 -11 5 -30 -22 -30 -20 -1 -21 -2 -4
-14 20 -16 23 -30 3 -23 -13 5 -31 -31 -21 -42 3 -2 5 1 5 7 0 23 18 12 25
-15 5 -20 2 -31 -11 -40 -10 -7 -14 -19 -10 -28 4 -11 2 -15 -6 -13 -7 3 -13
10 -13 16 0 5 -4 14 -9 19 -5 4 -7 -6 -4 -23 3 -23 1 -31 -9 -27 -10 4 -11 -3
-7 -26 5 -24 3 -31 -10 -31 -18 0 -23 -45 -6 -55 6 -3 10 -1 10 4 0 6 4 11 9
11 4 0 6 -11 4 -24 -3 -16 -10 -23 -19 -19 -10 4 -12 0 -7 -13 4 -12 3 -15 -6
-9 -10 6 -11 3 -2 -13 6 -11 16 -23 23 -25 7 -3 3 -6 -9 -6 -17 -1 -20 -6 -16
-22 4 -13 0 -26 -9 -33 -8 -6 -15 -24 -16 -41 0 -16 -4 -75 -6 -129 -3 -58 -2
-104 4 -111 6 -7 6 -24 1 -41 -8 -29 -7 -61 3 -71 2 -3 1 -16 -4 -29 -6 -15
-6 -24 0 -24 6 0 8 -11 4 -26 -6 -22 -4 -25 7 -19 12 7 11 6 0 -9 -12 -14 -12
-19 -2 -25 8 -5 10 -18 6 -37 -5 -22 -4 -25 4 -14 9 13 11 11 11 -7 0 -12 6
-24 13 -26 9 -4 9 -8 -2 -15 -8 -6 -10 -15 -6 -22 6 -9 4 -11 -5 -5 -10 6 -12
4 -7 -9 4 -10 7 -20 7 -22 0 -3 5 -2 11 2 8 4 9 0 4 -15 -3 -12 -2 -21 3 -21
6 0 12 5 14 12 6 17 28 0 28 -22 0 -10 -7 -20 -15 -24 -8 -3 -15 -13 -15 -23
0 -15 -2 -16 -10 -3 -8 12 -10 9 -10 -12 0 -36 9 -58 23 -52 7 2 13 -7 14 -22
1 -30 23 -49 36 -31 5 7 5 2 2 -12 -6 -19 -4 -23 8 -18 11 4 14 2 11 -8 -3 -8
0 -21 8 -29 11 -12 15 -12 30 1 17 15 38 10 38 -9 0 -5 -7 -8 -14 -5 -12 5
-14 -1 -10 -26 3 -18 6 -40 7 -49 2 -21 8 -22 26 -5 11 10 13 7 8 -13 -3 -14
-9 -35 -12 -47 -6 -17 -3 -23 9 -23 9 0 16 4 16 9 0 5 10 7 22 3 12 -3 17 -7
11 -9 -7 -3 -9 -12 -6 -21 3 -11 2 -13 -4 -6 -10 13 -76 17 -68 3 4 -5 12 -9
20 -9 23 0 35 -55 13 -63 -7 -2 -5 -3 4 -2 10 2 21 -1 24 -6 3 -5 1 -9 -5 -9
-17 0 -22 -36 -10 -64 9 -19 15 -23 21 -14 5 9 8 6 8 -9 0 -14 6 -23 15 -23
18 0 21 -45 4 -56 -7 -4 -9 0 -5 14 4 11 2 23 -4 27 -14 9 -13 -48 2 -63 15
-15 -9 -45 -29 -38 -8 3 -11 1 -8 -4 3 -6 13 -10 21 -10 8 0 17 -7 20 -15 4
-8 10 -12 15 -9 5 3 9 -2 9 -10 0 -9 -4 -16 -10 -16 -5 0 -10 -7 -10 -15 0 -8
4 -15 8 -15 5 0 17 -17 28 -37 10 -21 21 -40 25 -43 3 -3 5 -15 5 -27 0 -13 4
-23 9 -22 10 1 29 -40 26 -58 -1 -7 4 -10 12 -7 15 5 31 -21 22 -36 -3 -5 4
-14 15 -20 11 -6 20 -18 20 -26 0 -10 6 -14 14 -11 17 7 41 -18 32 -32 -4 -5
-1 -13 6 -18 7 -4 18 -17 24 -28 6 -11 20 -21 30 -21 36 -3 39 -4 27 -12 -22
-14 3 -36 48 -41 4 -1 10 -13 13 -27 6 -21 9 -24 21 -14 11 9 19 10 28 1 8 -6
17 -8 21 -4 4 4 4 0 0 -10 -8 -22 -24 -22 -24 0 0 14 -2 14 -20 -2 -11 -10
-20 -23 -20 -30 0 -14 56 -11 74 4 7 6 16 8 19 4 12 -11 8 -23 -8 -23 -8 0
-15 -5 -15 -12 0 -6 3 -9 6 -5 7 7 34 -17 34 -30 0 -4 18 -18 40 -31 45 -26
48 -34 20 -64 -17 -18 -23 -20 -45 -10 -21 10 -25 9 -25 -3 0 -8 8 -15 18 -15
10 0 23 -5 30 -12 9 -9 12 -9 12 0 0 18 18 14 24 -5 3 -10 4 -3 2 15 -4 49 27
52 105 9 69 -37 190 -85 282 -111 31 -9 57 -20 57 -24 0 -4 24 -8 53 -9 28 -1
111 -4 182 -8 125 -6 183 0 343 38 7 2 22 11 33 20 10 9 26 17 34 17 8 0 47
21 86 48 39 26 78 52 87 57 29 19 188 180 207 210 28 43 79 109 88 113 4 2 7
9 7 17 0 7 7 18 15 25 8 7 13 16 10 20 -3 5 2 15 10 23 8 9 15 23 15 31 0 9 5
16 10 16 6 0 10 5 10 12 0 11 23 65 57 134 8 17 13 42 12 55 -2 13 4 35 14 49
9 13 17 39 17 57 0 17 5 35 10 38 6 3 10 15 10 26 0 10 6 19 13 19 6 0 1 10
-13 21 -21 17 -22 19 -5 15 26 -7 47 37 49 103 0 25 4 48 8 51 11 8 17 101 7
94 -5 -3 -9 0 -9 5 0 6 7 11 15 11 11 0 15 11 15 41 0 33 3 40 15 35 13 -5 14
-2 4 17 -7 12 -17 25 -23 29 -7 4 -4 9 7 13 13 6 15 11 6 27 -9 16 -13 18 -20
7 -6 -10 -10 -6 -18 14 -6 15 -8 33 -5 42 6 16 39 29 53 21 9 -6 6 42 -4 52
-14 14 -56 12 -61 -3 -8 -19 -24 -10 -24 14 0 25 70 35 86 13 8 -11 10 2 8 52
-1 38 2 66 7 66 6 0 3 10 -5 21 -15 23 -12 73 7 97 5 6 6 12 2 12 -4 0 -13 -7
-20 -17 -15 -20 -47 -11 -39 12 4 8 0 23 -7 32 -10 12 -10 15 -1 9 8 -5 15 1
20 15 5 14 11 18 16 11 3 -6 2 -13 -4 -17 -5 -3 -10 -11 -10 -17 0 -7 6 -6 15
2 12 10 15 9 16 -6 0 -18 1 -18 8 1 5 12 3 25 -6 34 -12 11 -12 15 -2 22 8 4
10 11 7 15 -4 3 -14 -1 -23 -10 -26 -25 -55 -16 -33 11 8 11 7 12 -6 7 -9 -3
-16 -2 -16 4 0 15 22 21 43 10 22 -11 22 -4 0 18 -16 16 -16 16 5 10 13 -5 22
-3 22 3 0 6 -4 11 -10 11 -5 0 -10 7 -10 16 0 8 4 13 9 10 5 -3 12 1 15 10 9
22 8 24 -9 24 -12 0 -15 11 -13 45 0 24 -5 51 -12 60 -8 10 -9 15 -1 15 6 0
11 9 11 21 0 11 4 18 9 15 5 -3 8 5 7 19 0 14 -7 27 -13 30 -7 2 -13 9 -13 15
0 6 5 8 12 4 7 -4 8 -3 4 5 -4 6 -11 9 -16 6 -5 -3 -11 -1 -14 4 -4 5 -2 12 4
16 12 7 10 65 -2 65 -4 0 -8 9 -8 20 0 11 -5 20 -11 20 -5 0 -8 -4 -4 -9 3 -5
1 -13 -5 -16 -6 -4 -1 -14 12 -27 19 -16 19 -19 5 -14 -10 3 -22 6 -26 6 -8 0
-11 14 -14 64 -1 19 -5 32 -9 29 -5 -2 -8 0 -8 6 0 5 4 12 9 15 13 8 1 46 -13
43 -6 -1 -11 10 -11 26 1 18 -4 27 -15 27 -9 0 -21 5 -27 11 -13 13 -6 42 8
33 5 -3 9 0 9 5 0 14 -13 14 -27 0 -8 -8 -13 -6 -17 9 -4 11 -6 24 -5 28 5 31
-2 41 -28 37 -21 -4 -24 -2 -13 6 12 8 12 11 -3 17 -14 5 -15 9 -6 20 15 19
30 18 23 -1 -4 -8 -2 -15 4 -15 6 0 9 8 7 18 -2 9 -4 25 -4 35 -1 10 -5 16
-10 13 -5 -3 -15 1 -22 10 -11 13 -9 14 17 8 24 -6 27 -5 18 7 -16 19 -6 82
12 75 7 -3 16 -1 19 5 4 5 3 9 -2 8 -4 -1 -17 -1 -27 0 -20 1 -20 1 0 15 19
14 30 81 11 69 -5 -3 -6 5 -2 18 5 20 4 21 -5 9 -10 -12 -11 -11 -7 8 3 12 1
22 -5 22 -6 0 -8 -13 -6 -29 3 -20 0 -27 -8 -24 -15 6 -11 53 7 63 10 7 10 12
-2 26 -8 9 -13 25 -11 34 2 10 -4 20 -13 23 -8 4 -15 13 -15 22 0 21 -47 95
-65 102 -8 3 -15 13 -15 22 0 25 -101 146 -198 239 -127 121 -235 191 -284
183 -5 0 -8 6 -8 14 0 8 -4 16 -10 16 -5 1 -15 2 -20 3 -6 0 -14 6 -18 11 -10
14 -42 18 -42 5 0 -6 -5 -8 -10 -5 -6 4 -8 10 -5 15 3 5 -6 12 -20 16 -14 3
-25 11 -25 16 0 5 -6 8 -12 5 -7 -2 -23 0 -35 4 -14 5 -23 5 -23 -1 0 -6 -8
-2 -18 8 -16 15 -10 36 8 28 3 -1 21 14 40 33 23 23 27 29 10 18 -40 -28 -67
-36 -123 -40 -65 -4 -74 8 -93 126 -4 24 -2 37 5 37 6 0 11 5 11 10 0 6 -9 10
-20 10 -13 0 -20 -7 -20 -19z m-230 -171 c0 -5 -4 -10 -10 -10 -5 0 -10 5 -10
10 0 6 5 10 10 10 6 0 10 -4 10 -10z m380 -4 c0 -3 -4 -8 -10 -11 -5 -3 -10
-1 -10 4 0 6 5 11 10 11 6 0 10 -2 10 -4z m-674 -71 c2 -28 -13 -34 -23 -9 -3
9 0 20 8 25 8 5 14 9 14 9 0 0 1 -11 1 -25z m-726 -685 c0 -5 -5 -10 -11 -10
-5 0 -7 5 -4 10 3 6 8 10 11 10 2 0 4 -4 4 -10z m2250 -74 c0 -3 -4 -8 -10
-11 -5 -3 -10 -1 -10 4 0 6 5 11 10 11 6 0 10 -2 10 -4z m53 -68 c-5 -10 -33
10 -33 23 0 5 9 4 19 -3 11 -7 17 -16 14 -20z m-33 -58 c0 -5 -7 -7 -15 -4 -8
4 -15 8 -15 10 0 2 7 4 15 4 8 0 15 -4 15 -10z m-3 -35 c0 -8 -4 -15 -9 -15
-10 0 -11 14 -1 23 9 10 10 9 10 -8z m3 -79 c0 -3 -4 -8 -10 -11 -5 -3 -10 -1
-10 4 0 6 5 11 10 11 6 0 10 -2 10 -4z m100 -231 c0 -8 -4 -15 -10 -15 -5 0
-10 7 -10 15 0 8 5 15 10 15 6 0 10 -7 10 -15z m-36 -11 c5 -14 4 -15 -9 -4
-17 14 -19 20 -6 20 5 0 12 -7 15 -16z m113 -206 c-3 -8 -6 -5 -6 6 -1 11 2
17 5 13 3 -3 4 -12 1 -19z m-17 2 c0 -5 -5 -10 -11 -10 -5 0 -7 5 -4 10 3 6 8
10 11 10 2 0 4 -4 4 -10z m43 -59 c3 -14 1 -18 -9 -14 -15 6 -18 16 -7 26 9
10 10 9 16 -12z m1 -126 c-4 -8 -10 -15 -15 -15 -4 0 -6 7 -3 15 4 8 10 15 15
15 4 0 6 -7 3 -15z m-24 -35 c8 -5 11 -10 5 -10 -5 0 -17 5 -25 10 -8 5 -10
10 -5 10 6 0 17 -5 25 -10z m-35 -34 c0 -15 -4 -21 -9 -16 -5 5 -6 16 -3 24 9
22 12 20 12 -8z m-108 -241 c-4 -8 -11 -15 -17 -15 -7 0 -7 6 0 21 13 23 26
19 17 -6z m180 -27 c7 -1 10 -5 7 -10 -3 -5 -10 -6 -15 -3 -5 4 -9 1 -9 -5 0
-7 -9 -9 -22 -5 -16 4 -19 3 -9 -3 8 -6 10 -15 5 -24 -8 -12 -14 -13 -38 -3
-29 12 -29 13 -7 20 15 4 20 12 16 24 -4 14 0 17 27 14 18 -2 38 -4 45 -5z
m-202 -17 c-3 -6 -11 -11 -16 -11 -5 0 -4 6 3 14 14 16 24 13 13 -3z m215 -41
c0 -5 -4 -10 -10 -10 -5 0 -10 5 -10 10 0 6 5 10 10 10 6 0 10 -4 10 -10z
m-133 -75 c0 -8 -4 -15 -9 -15 -10 0 -11 14 -1 23 9 10 10 9 10 -8z m69 -24
c-4 -5 -3 -11 1 -14 5 -2 2 -2 -4 -1 -7 2 -13 -1 -13 -7 0 -6 -5 -7 -12 -3 -7
5 -5 11 7 21 22 15 28 17 21 4z m54 -1 c-8 -5 -19 -10 -25 -10 -5 0 -3 5 5 10
8 5 20 10 25 10 6 0 3 -5 -5 -10z m-147 -85 c-3 -9 -8 -14 -10 -11 -3 3 -2 9
2 15 9 16 15 13 8 -4z m82 -56 c3 6 11 11 17 11 6 0 3 -9 -7 -20 -10 -11 -23
-20 -28 -20 -6 0 -7 3 -4 6 3 4 2 16 -4 28 -9 20 -9 20 4 3 10 -12 17 -14 22
-8z m-61 -83 c-3 -9 -10 -16 -15 -16 -6 0 -5 9 1 21 13 24 24 20 14 -5z m72 0
c1 -17 -5 -26 -20 -30 -11 -3 -23 -1 -25 5 -2 6 -14 0 -27 -12 -13 -12 -21
-26 -18 -30 3 -5 0 -9 -5 -9 -19 0 -12 20 16 46 15 14 32 23 39 20 7 -3 16 4
19 15 9 26 20 24 21 -5z m-2401 -76 c-3 -5 -10 -10 -16 -10 -5 0 -9 5 -9 10 0
6 7 10 16 10 8 0 12 -4 9 -10z m25 -60 c0 -5 -5 -10 -11 -10 -5 0 -7 5 -4 10
3 6 8 10 11 10 2 0 4 -4 4 -10z m7 -192 c-3 -8 -6 -5 -6 6 -1 11 2 17 5 13 3
-3 4 -12 1 -19z m47 -29 c-8 -13 -24 -1 -24 18 0 13 3 13 15 3 8 -7 12 -16 9
-21z m-1 -170 c-4 -13 -9 -17 -15 -11 -11 11 -3 32 12 32 4 0 6 -9 3 -21z m37
-39 c0 -11 5 -20 10 -20 6 0 10 -9 10 -19 0 -12 -6 -18 -17 -17 -12 2 -18 14
-20 39 -1 21 2 37 8 37 5 0 9 -9 9 -20z m81 -172 c4 -16 3 -28 -2 -28 -5 0 -9
11 -9 24 0 15 -7 27 -17 30 -15 4 -15 5 1 3 12 -1 22 -13 27 -29z"/>
<path d="M2684 7705 c8 -31 34 -61 44 -50 4 3 -1 11 -11 16 -9 6 -17 19 -17
29 0 10 -5 22 -11 26 -9 5 -10 -1 -5 -21z"/>
<path d="M2685 7640 c-3 -5 3 -10 15 -10 12 0 18 5 15 10 -3 6 -10 10 -15 10
-5 0 -12 -4 -15 -10z"/>
<path d="M2769 7621 c7 -5 11 -13 7 -19 -4 -6 2 -10 13 -9 19 1 19 2 4 19 -9
10 -21 18 -27 18 -6 0 -5 -4 3 -9z"/>
<path d="M2990 7609 c0 -5 5 -7 10 -4 6 3 10 8 10 11 0 2 -4 4 -10 4 -5 0 -10
-5 -10 -11z"/>
<path d="M2800 7550 c0 -5 5 -10 10 -10 6 0 10 5 10 10 0 6 -4 10 -10 10 -5 0
-10 -4 -10 -10z"/>
<path d="M5040 7505 c0 -3 9 -15 20 -27 22 -24 27 -13 6 15 -13 16 -26 23 -26
12z"/>
<path d="M5099 7433 c11 -22 30 -38 35 -32 2 2 -8 15 -21 29 -23 23 -24 23
-14 3z"/>
<path d="M5170 7339 c0 -5 5 -7 10 -4 6 3 10 8 10 11 0 2 -4 4 -10 4 -5 0 -10
-5 -10 -11z"/>
<path d="M5241 7254 c0 -11 3 -14 6 -6 3 7 2 16 -1 19 -3 4 -6 -2 -5 -13z"/>
<path d="M5205 7250 c3 -5 8 -10 11 -10 2 0 4 5 4 10 0 6 -5 10 -11 10 -5 0
-7 -4 -4 -10z"/>
<path d="M4846 7171 c-3 -5 1 -11 9 -15 15 -6 29 7 18 18 -9 9 -21 8 -27 -3z"/>
<path d="M5125 7140 c-3 -6 1 -7 9 -4 18 7 21 14 7 14 -6 0 -13 -4 -16 -10z"/>
<path d="M4955 7119 c-4 -6 -4 -13 -1 -16 3 -4 6 -1 6 6 0 7 4 10 9 6 5 -3 12
-1 16 5 3 5 -1 10 -9 10 -8 0 -18 -5 -21 -11z"/>
<path d="M5086 7121 c-8 -13 5 -70 17 -78 6 -3 7 -1 3 5 -9 16 7 15 22 0 17
-17 15 -2 -4 27 -9 14 -21 22 -26 19 -6 -4 -8 2 -3 15 6 21 1 29 -9 12z"/>
<path d="M4978 7063 c-28 -14 -38 -33 -18 -33 6 0 10 5 10 11 0 5 4 7 10 4 6
-4 5 -11 -3 -19 -6 -8 -16 -11 -21 -9 -5 3 -7 0 -4 -8 7 -22 40 -24 36 -3 -2
11 6 23 20 30 15 7 20 14 13 19 -6 3 -9 11 -6 16 8 12 -4 10 -37 -8z"/>
<path d="M5040 7069 c0 -5 5 -7 10 -4 6 3 10 8 10 11 0 2 -4 4 -10 4 -5 0 -10
-5 -10 -11z"/>
<path d="M4860 7019 c0 -11 4 -18 10 -14 5 3 7 12 3 20 -7 21 -13 19 -13 -6z"/>
<path d="M5230 6994 c0 -3 9 -17 20 -31 23 -29 25 -25 8 12 -10 22 -28 35 -28
19z"/>
<path d="M5127 6979 c7 -7 15 -10 18 -7 3 3 -2 9 -12 12 -14 6 -15 5 -6 -5z"/>
<path d="M4865 6970 c-3 -5 -1 -10 4 -10 6 0 11 5 11 10 0 6 -2 10 -4 10 -3 0
-8 -4 -11 -10z"/>
<path d="M5055 6950 c3 -5 8 -10 11 -10 2 0 4 5 4 10 0 6 -5 10 -11 10 -5 0
-7 -4 -4 -10z"/>
<path d="M5360 6943 c0 -6 8 -17 18 -24 16 -13 16 -13 2 6 -8 11 -16 22 -17
24 -2 2 -3 0 -3 -6z"/>
<path d="M5426 6915 c4 -8 10 -15 15 -15 4 0 6 7 3 15 -4 8 -10 15 -15 15 -4
0 -6 -7 -3 -15z"/>
<path d="M4840 6871 c0 -6 4 -13 10 -16 6 -3 7 1 4 9 -7 18 -14 21 -14 7z"/>
<path d="M5175 6760 c-3 -5 -1 -10 4 -10 6 0 11 5 11 10 0 6 -2 10 -4 10 -3 0
-8 -4 -11 -10z"/>
<path d="M2106 6734 c5 -18 -3 -29 -36 -53 -32 -23 -37 -30 -20 -28 12 1 31
14 42 29 11 16 29 28 41 28 15 0 18 3 10 11 -6 6 -9 17 -7 23 3 7 -4 12 -15
12 -16 0 -19 -5 -15 -22z"/>
<path d="M5330 6746 c0 -2 7 -7 16 -10 8 -3 12 -2 9 4 -6 10 -25 14 -25 6z"/>
<path d="M5516 6695 c4 -8 11 -15 16 -15 6 0 5 6 -2 15 -7 8 -14 15 -16 15 -2
0 -1 -7 2 -15z"/>
<path d="M2165 6663 c3 -8 5 -18 5 -21 0 -8 20 20 20 29 0 3 -7 6 -15 6 -10 0
-14 -6 -10 -14z"/>
<path d="M1971 6578 c-1 -20 14 -24 25 -6 4 6 3 8 -4 4 -5 -3 -13 0 -15 6 -3
8 -6 6 -6 -4z"/>
<path d="M2141 6543 c0 -13 2 -14 6 -4 4 11 7 11 14 0 4 -7 11 -10 14 -7 10
10 -4 28 -21 28 -8 0 -14 -8 -13 -17z"/>
<path d="M4566 6521 c-17 -19 -17 -19 3 -14 12 3 21 12 21 19 0 18 -4 18 -24
-5z"/>
<path d="M5133 6439 c-13 -5 -23 -13 -23 -19 0 -6 4 -9 9 -6 5 3 11 -1 15 -9
7 -20 22 -19 30 1 10 26 -6 43 -31 33z"/>
<path d="M2140 6421 c0 -5 7 -11 14 -14 10 -4 13 -1 9 9 -6 15 -23 19 -23 5z"/>
<path d="M1842 6345 c-12 -25 -17 -45 -12 -45 6 0 15 12 20 28 6 15 15 35 20
45 6 9 7 17 2 17 -4 0 -18 -20 -30 -45z"/>
<path d="M1695 6320 c3 -5 8 -10 11 -10 2 0 4 5 4 10 0 6 -5 10 -11 10 -5 0
-7 -4 -4 -10z"/>
<path d="M5636 6321 c-3 -5 1 -14 8 -20 12 -10 13 -8 9 8 -6 23 -9 25 -17 12z"/>
<path d="M1787 6294 c17 -7 36 -22 42 -31 9 -16 10 -16 11 3 0 23 -18 35 -60
39 -22 3 -21 1 7 -11z"/>
<path d="M4640 6280 c0 -5 4 -10 9 -10 6 0 13 5 16 10 3 6 -1 10 -9 10 -9 0
-16 -4 -16 -10z"/>
<path d="M5585 6270 c-3 -5 -1 -10 4 -10 6 0 11 5 11 10 0 6 -2 10 -4 10 -3 0
-8 -4 -11 -10z"/>
<path d="M5678 6013 c7 -3 16 -2 19 1 4 3 -2 6 -13 5 -11 0 -14 -3 -6 -6z"/>
<path d="M1226 5975 c-3 -8 -1 -15 4 -15 6 0 10 7 10 15 0 8 -2 15 -4 15 -2 0
-6 -7 -10 -15z"/>
<path d="M5701 5936 c-7 -8 -8 -16 -2 -18 6 -2 6 -20 2 -45 -5 -24 -5 -43 0
-43 5 0 8 -15 7 -32 -1 -18 2 -46 7 -62 5 -19 4 -31 -5 -36 -8 -5 -11 -20 -8
-39 2 -17 1 -31 -4 -31 -7 0 -2 -80 6 -88 3 -2 0 -17 -4 -34 -7 -24 -7 -28 4
-19 7 6 21 9 30 5 12 -5 16 0 16 18 0 13 5 29 12 36 9 9 9 12 0 12 -8 0 -12
19 -12 56 0 49 -2 55 -15 44 -19 -16 -19 -10 -1 25 9 16 12 36 7 49 -4 11 -6
36 -5 54 1 17 -1 32 -5 32 -3 0 -6 24 -5 54 1 63 -7 84 -25 62z"/>
<path d="M5370 5530 c0 -5 5 -10 10 -10 6 0 10 5 10 10 0 6 -4 10 -10 10 -5 0
-10 -4 -10 -10z"/>
<path d="M5720 5458 c0 -7 4 -19 9 -27 11 -17 25 3 17 24 -7 18 -26 20 -26 3z"/>
<path d="M2121 5354 c0 -11 3 -14 6 -6 3 7 2 16 -1 19 -3 4 -6 -2 -5 -13z"/>
<path d="M2090 5334 c0 -8 5 -12 10 -9 6 3 10 10 10 16 0 5 -4 9 -10 9 -5 0
-10 -7 -10 -16z"/>
<path d="M5460 5320 c-13 -8 -13 -10 2 -10 9 0 20 5 23 10 8 13 -5 13 -25 0z"/>
<path d="M5577 5313 c-4 -3 -7 -17 -7 -30 0 -25 -42 -67 -68 -69 -80 -5 -95
-7 -79 -11 9 -2 17 -9 17 -14 0 -6 8 -5 20 1 17 9 20 8 20 -9 0 -11 5 -23 10
-26 13 -8 40 -72 40 -96 0 -14 -8 -19 -27 -20 -24 -2 -25 -2 -5 -6 12 -2 22
-8 22 -13 0 -4 10 -6 23 -2 40 10 51 46 16 55 -15 4 -20 11 -15 23 4 10 -1 23
-13 33 -10 9 -21 26 -23 36 -3 19 3 20 75 19 43 0 72 3 65 7 -7 5 -28 8 -46 7
-47 -2 -56 12 -28 45 16 18 22 35 18 52 -5 27 -6 28 -15 18z"/>
<path d="M5133 5283 c9 -2 23 -2 30 0 6 3 -1 5 -18 5 -16 0 -22 -2 -12 -5z"/>
<path d="M5246 5280 c-11 -3 -15 -9 -10 -13 10 -6 42 9 34 16 -3 3 -14 1 -24
-3z"/>
<path d="M5085 5230 c-3 -5 -2 -10 4 -10 5 0 13 5 16 10 3 6 2 10 -4 10 -5 0
-13 -4 -16 -10z"/>
<path d="M5795 5230 c3 -5 8 -10 11 -10 2 0 4 5 4 10 0 6 -5 10 -11 10 -5 0
-7 -4 -4 -10z"/>
<path d="M5330 5220 c0 -5 7 -10 16 -10 8 0 12 5 9 10 -3 6 -10 10 -16 10 -5
0 -9 -4 -9 -10z"/>
<path d="M5693 5215 c-9 -10 -9 -16 -2 -20 14 -9 22 0 17 18 -2 13 -5 13 -15
2z"/>
<path d="M4712 5208 c-7 -7 -12 -16 -12 -20 0 -11 38 -10 45 2 3 6 -1 7 -10 4
-11 -5 -14 -2 -9 10 7 19 2 20 -14 4z"/>
<path d="M5378 5203 c7 -3 16 -2 19 1 4 3 -2 6 -13 5 -11 0 -14 -3 -6 -6z"/>
<path d="M1525 5190 c3 -5 8 -10 11 -10 2 0 4 5 4 10 0 6 -5 10 -11 10 -5 0
-7 -4 -4 -10z"/>
<path d="M5322 5140 c0 -14 2 -19 5 -12 2 6 2 18 0 25 -3 6 -5 1 -5 -13z"/>
<path d="M1650 5140 c0 -5 5 -10 10 -10 6 0 10 5 10 10 0 6 -4 10 -10 10 -5 0
-10 -4 -10 -10z"/>
<path d="M5315 5070 c-3 -5 -1 -10 4 -10 6 0 11 5 11 10 0 6 -2 10 -4 10 -3 0
-8 -4 -11 -10z"/>
<path d="M5326 5017 c1 -9 -5 -21 -14 -27 -22 -13 -4 -12 58 1 65 14 70 39 5
29 -28 -4 -46 -3 -48 4 -2 6 -3 3 -1 -7z"/>
<path d="M5583 5014 c0 -9 4 -11 12 -4 7 5 14 9 16 7 2 -1 3 0 1 2 -7 11 -29
7 -29 -5z"/>
<path d="M5460 5010 l-25 -8 27 -1 c15 -1 30 4 33 9 7 11 0 11 -35 0z"/>
<path d="M5541 4974 c0 -11 3 -14 6 -6 3 7 2 16 -1 19 -3 4 -6 -2 -5 -13z"/>
<path d="M1485 4950 c-3 -5 -2 -10 4 -10 5 0 13 5 16 10 3 6 2 10 -4 10 -5 0
-13 -4 -16 -10z"/>
<path d="M1805 4910 c-10 -11 -15 -20 -11 -20 11 0 39 30 34 36 -3 2 -13 -5
-23 -16z"/>
<path d="M5526 4908 c3 -5 10 -6 15 -3 13 9 11 12 -6 12 -8 0 -12 -4 -9 -9z"/>
<path d="M2287 4714 c-8 -8 3 -34 14 -34 11 0 12 27 0 34 -4 3 -11 3 -14 0z"/>
<path d="M2292 4638 c2 -6 10 -14 16 -16 7 -2 10 2 6 12 -7 18 -28 22 -22 4z"/>
<path d="M5275 4550 c-3 -5 -1 -10 4 -10 6 0 11 5 11 10 0 6 -2 10 -4 10 -3 0
-8 -4 -11 -10z"/>
<path d="M1385 4480 c-3 -5 1 -10 10 -10 9 0 13 5 10 10 -3 6 -8 10 -10 10 -2
0 -7 -4 -10 -10z"/>
<path d="M5466 4470 c-11 -3 -15 -9 -10 -13 10 -6 42 9 34 16 -3 3 -14 1 -24
-3z"/>
<path d="M5410 4416 c0 -2 7 -7 16 -10 8 -3 12 -2 9 4 -6 10 -25 14 -25 6z"/>
<path d="M5420 4344 c0 -8 -5 -12 -11 -9 -6 4 -10 1 -9 -6 3 -20 -11 -59 -21
-59 -4 0 -14 -18 -20 -40 -7 -22 -18 -45 -26 -51 -7 -6 -13 -16 -13 -22 0 -20
-95 -162 -174 -262 -113 -142 -230 -256 -373 -365 -40 -30 -71 -56 -69 -58 5
-4 117 75 169 120 22 18 46 37 55 42 10 5 21 15 25 23 5 7 12 11 18 8 5 -4 9
-1 9 5 0 6 36 48 79 93 75 78 188 217 176 217 -3 0 3 9 13 20 10 11 25 32 33
47 8 15 22 37 32 48 9 11 23 28 31 37 8 9 12 19 9 22 -4 3 -2 6 4 6 6 0 9 11
8 24 -2 14 3 27 12 30 8 3 11 10 8 16 -3 5 -2 10 2 10 9 0 37 59 34 73 -1 4 3
17 9 27 7 14 7 20 0 20 -5 0 -10 -7 -10 -16z"/>
<path d="M4818 4293 c7 -3 16 -2 19 1 4 3 -2 6 -13 5 -11 0 -14 -3 -6 -6z"/>
<path d="M2157 4224 c-4 -4 -7 -14 -7 -23 0 -11 3 -12 11 -4 6 6 10 16 7 23
-2 6 -7 8 -11 4z"/>
<path d="M4763 4158 c-12 -24 -29 -59 -37 -78 -19 -44 -65 -126 -92 -165 -11
-17 -31 -48 -43 -70 l-23 -40 44 45 c25 25 58 67 74 95 16 27 34 59 41 70 25
42 44 90 45 114 1 14 6 29 11 32 5 4 7 14 5 23 -2 11 -10 2 -25 -26z"/>
<path d="M1742 4150 c0 -14 2 -19 5 -12 2 6 2 18 0 25 -3 6 -5 1 -5 -13z"/>
<path d="M1808 4123 c7 -3 16 -2 19 1 4 3 -2 6 -13 5 -11 0 -14 -3 -6 -6z"/>
<path d="M4846 4112 c-4 -13 -5 -26 -2 -29 10 -11 18 4 14 29 l-4 23 -8 -23z"/>
<path d="M1740 4110 c0 -5 5 -10 10 -10 6 0 10 5 10 10 0 6 -4 10 -10 10 -5 0
-10 -4 -10 -10z"/>
<path d="M1732 4070 c0 -14 2 -19 5 -12 2 6 2 18 0 25 -3 6 -5 1 -5 -13z"/>
<path d="M2034 4055 c-10 -8 -14 -15 -8 -15 6 0 17 7 24 15 16 19 9 19 -16 0z"/>
<path d="M1721 4024 c0 -11 3 -14 6 -6 3 7 2 16 -1 19 -3 4 -6 -2 -5 -13z"/>
<path d="M2257 4013 c-4 -3 -7 -11 -7 -17 0 -6 5 -5 12 2 6 6 9 14 7 17 -3 3
-9 2 -12 -2z"/>
<path d="M5161 3997 c-13 -21 -12 -21 5 -5 10 10 16 20 13 22 -3 3 -11 -5 -18
-17z"/>
<path d="M2210 3963 c0 -10 4 -14 8 -8 4 6 11 13 16 18 5 4 2 7 -7 7 -10 0
-17 -8 -17 -17z"/>
<path d="M2496 3951 c-6 -10 43 -26 52 -16 7 7 2 11 -25 19 -12 4 -24 3 -27
-3z"/>
<path d="M2642 3950 c-12 -5 -30 -6 -39 -3 -12 5 -15 2 -10 -9 8 -21 -3 -31
-19 -17 -14 11 -34 4 -34 -11 0 -5 6 -7 14 -4 8 3 17 1 21 -5 3 -6 17 -8 31
-5 39 10 33 -37 -10 -70 -31 -23 -35 -24 -39 -8 -4 16 -5 16 -6 -1 0 -10 -5
-16 -9 -13 -7 4 -8 -22 -3 -42 1 -2 22 16 47 40 25 24 52 47 60 51 12 7 11 12
-2 32 -17 27 -12 45 14 45 25 0 46 -16 37 -29 -5 -9 -11 -9 -23 0 -13 10 -13
9 1 -7 21 -22 97 -28 97 -6 0 6 8 12 17 12 9 0 14 3 11 6 -4 3 -23 1 -43 -5
-35 -9 -36 -9 -52 25 -18 36 -24 38 -61 24z"/>
<path d="M2067 3943 c-13 -13 -7 -21 13 -16 11 3 20 9 20 14 0 10 -24 12 -33
2z"/>
<path d="M2462 3918 c2 -12 8 -23 14 -25 7 -2 10 6 7 22 -6 30 -26 34 -21 3z"/>
<path d="M2173 3907 c8 -29 -6 -52 -28 -44 -9 4 -13 3 -10 -2 11 -19 -27 -31
-105 -33 -36 -1 -38 -2 -12 -5 17 -2 32 -8 32 -13 0 -4 9 -6 20 -3 12 3 20 2
18 -3 -2 -5 7 -25 20 -45 12 -20 25 -50 28 -68 6 -27 4 -31 -15 -31 -20 0 -21
-1 -7 -16 9 -8 20 -12 26 -9 5 3 10 1 10 -5 0 -7 7 -5 16 4 21 22 27 20 21 -5
-4 -14 -2 -17 6 -11 7 6 23 12 37 15 l25 4 -25 2 c-26 1 -50 17 -50 34 0 4 6
5 13 1 7 -4 9 -3 4 2 -8 9 -12 10 -38 13 -7 1 -9 11 -5 27 5 17 3 23 -4 19 -5
-3 -10 1 -10 9 0 9 -4 16 -10 16 -5 0 -10 7 -10 15 0 8 -6 15 -12 16 -7 1 -2
4 12 8 14 5 32 5 40 1 8 -4 38 -4 65 -1 47 6 45 20 -2 16 -13 -1 -23 2 -23 6
0 5 -7 6 -15 3 -16 -6 -19 4 -9 30 3 8 11 13 18 10 8 -3 11 6 8 31 -3 23 -9
35 -19 35 -11 0 -13 -7 -10 -23z"/>
<path d="M5030 3848 c-89 -95 -257 -248 -320 -291 -25 -17 -47 -33 -50 -36 -3
-4 -24 -19 -47 -34 -67 -43 -50 -52 18 -10 133 83 294 222 422 366 98 109 79
113 -23 5z"/>
<path d="M1856 3900 c-11 -3 -15 -9 -10 -13 10 -6 42 9 34 16 -3 3 -14 1 -24
-3z"/>
<path d="M2545 3850 c3 -5 8 -10 11 -10 2 0 4 5 4 10 0 6 -5 10 -11 10 -5 0
-7 -4 -4 -10z"/>
<path d="M1935 3840 c3 -5 11 -10 16 -10 6 0 7 5 4 10 -3 6 -11 10 -16 10 -6
0 -7 -4 -4 -10z"/>
<path d="M2290 3781 c0 -14 22 -26 42 -23 9 2 22 -6 28 -18 6 -11 15 -18 21
-15 5 4 7 11 4 16 -4 5 3 9 13 9 11 0 22 -9 25 -20 4 -15 0 -20 -13 -20 -10 0
-20 -7 -24 -15 -3 -9 1 -15 11 -15 8 0 26 -11 38 -24 13 -14 26 -22 29 -19 3
4 6 1 6 -5 0 -7 -6 -12 -12 -12 -9 0 -9 -3 1 -9 12 -8 12 -12 2 -25 -8 -9 -20
-16 -27 -16 -25 0 -15 -15 11 -17 46 -4 55 -6 55 -15 0 -4 -4 -8 -10 -8 -5 0
-10 -4 -10 -9 0 -5 9 -7 20 -4 11 3 20 0 20 -6 0 -6 6 -11 14 -11 8 0 16 -6
19 -12 2 -7 8 -10 12 -6 4 4 2 14 -5 23 -7 8 -11 15 -9 16 45 8 63 5 80 -12
10 -10 30 -19 44 -19 15 0 39 -7 54 -15 16 -8 31 -11 34 -8 4 3 13 1 20 -5 8
-7 17 -9 21 -5 4 4 11 1 16 -7 6 -8 10 -10 10 -4 0 6 -16 22 -35 35 -19 13
-35 27 -35 32 0 4 -7 7 -15 7 -8 0 -15 7 -15 17 0 9 -3 14 -6 10 -6 -6 -34 16
-34 26 0 3 8 7 19 10 17 4 41 -5 66 -25 77 -62 227 -143 300 -163 92 -24 97
-17 13 19 -106 47 -232 112 -296 153 -47 30 -52 36 -40 50 7 9 27 22 43 29 34
14 105 81 105 99 0 10 -17 12 -52 6 -5 0 -8 -8 -8 -16 0 -23 -72 -87 -92 -82
-11 3 -22 -2 -28 -14 -6 -10 -14 -18 -18 -18 -4 1 -16 1 -27 -1 l-20 -1 20 -9
c19 -9 19 -9 -2 -16 -13 -3 -23 -10 -23 -15 0 -5 -9 -9 -19 -9 -10 0 -22 -7
-25 -16 -5 -13 -9 -14 -21 -4 -8 6 -23 9 -33 6 -23 -8 -42 13 -45 46 -1 13 -7
28 -14 33 -11 8 -9 20 12 60 27 54 33 79 13 53 -22 -27 -67 -32 -86 -9 -9 11
-42 26 -74 35 -66 19 -68 19 -68 7z m590 -40 c0 -6 -4 -13 -10 -16 -5 -3 -10
1 -10 9 0 9 5 16 10 16 6 0 10 -4 10 -9z m-183 -233 c-3 -8 -6 -5 -6 6 -1 11
2 17 5 13 3 -3 4 -12 1 -19z"/>
<path d="M1934 3765 c-3 -8 -4 -20 -2 -27 3 -7 7 -1 10 15 6 29 1 36 -8 12z"/>
<path d="M2480 3756 c0 -9 5 -16 10 -16 6 0 10 4 10 9 0 6 -4 13 -10 16 -5 3
-10 -1 -10 -9z"/>
<path d="M2300 3698 c0 -5 11 -8 25 -8 14 0 25 3 25 8 0 4 -11 7 -25 7 -14 0
-25 -3 -25 -7z"/>
<path d="M1980 3637 c-25 -6 -52 -18 -62 -26 -15 -15 -15 -18 2 -38 15 -19 19
-20 24 -7 3 8 2 12 -4 9 -6 -3 -10 1 -10 9 0 15 10 19 68 31 18 4 32 13 32 21
0 8 -1 13 -2 13 -2 -1 -23 -6 -48 -12z"/>
<path d="M4965 3630 c-3 -6 1 -7 9 -4 18 7 21 14 7 14 -6 0 -13 -4 -16 -10z"/>
<path d="M2078 3623 c7 -3 16 -2 19 1 4 3 -2 6 -13 5 -11 0 -14 -3 -6 -6z"/>
<path d="M2210 3601 c-18 -34 -11 -41 15 -15 15 15 32 23 41 20 9 -3 12 -1 9
4 -11 17 -54 11 -65 -9z"/>
<path d="M2532 3607 c-8 -9 -8 -17 0 -27 8 -12 9 -12 4 2 -6 20 10 34 17 16 4
-9 6 -10 6 -1 1 18 -15 24 -27 10z"/>
<path d="M2360 3592 c0 -12 19 -26 26 -19 2 2 -2 10 -11 17 -9 8 -15 8 -15 2z"/>
<path d="M4884 3555 c-36 -33 -37 -34 -8 -18 18 9 37 25 43 35 16 26 9 23 -35
-17z"/>
<path d="M2885 3570 c3 -5 10 -10 16 -10 5 0 9 5 9 10 0 6 -7 10 -16 10 -8 0
-12 -4 -9 -10z"/>
<path d="M2446 3541 c-4 -5 -2 -12 3 -15 5 -4 12 -2 15 3 4 5 2 12 -3 15 -5 4
-12 2 -15 -3z"/>
<path d="M2000 3499 c0 -5 5 -7 10 -4 6 3 10 8 10 11 0 2 -4 4 -10 4 -5 0 -10
-5 -10 -11z"/>
<path d="M4770 3470 l-35 -30 32 17 c18 10 35 24 38 31 6 16 5 16 -35 -18z"/>
<path d="M2405 3480 c3 -5 8 -10 11 -10 2 0 4 5 4 10 0 6 -5 10 -11 10 -5 0
-7 -4 -4 -10z"/>
<path d="M2040 3436 c0 -8 5 -18 10 -21 6 -3 10 1 10 9 0 8 -4 18 -10 21 -5 3
-10 -1 -10 -9z"/>
<path d="M2845 3440 c3 -5 8 -10 11 -10 2 0 4 5 4 10 0 6 -5 10 -11 10 -5 0
-7 -4 -4 -10z"/>
<path d="M4514 3419 c-19 -22 -19 -22 3 -10 24 12 39 31 25 31 -5 0 -17 -10
-28 -21z"/>
<path d="M4683 3412 c-24 -15 -43 -31 -43 -35 0 -5 20 6 45 24 39 28 51 39 43
39 -2 0 -22 -13 -45 -28z"/>
<path d="M2600 3395 c-7 -8 -9 -15 -6 -15 4 0 14 7 22 15 9 8 11 15 6 15 -5 0
-15 -7 -22 -15z"/>
<path d="M2456 3377 c3 -10 9 -15 12 -12 3 3 0 11 -7 18 -10 9 -11 8 -5 -6z"/>
<path d="M2310 3371 c0 -5 -3 -18 -6 -28 -6 -16 -5 -16 9 2 19 23 21 35 7 35
-5 0 -10 -4 -10 -9z"/>
<path d="M2480 3360 c0 -5 -7 -10 -15 -10 -8 0 -15 -4 -15 -8 0 -17 36 -7 37
10 1 10 0 18 -3 18 -2 0 -4 -4 -4 -10z"/>
<path d="M2647 3359 c7 -7 15 -10 18 -7 3 3 -2 9 -12 12 -14 6 -15 5 -6 -5z"/>
<path d="M2033 3335 c-6 -6 -7 -18 -3 -25 6 -9 10 -7 15 9 8 27 4 33 -12 16z"/>
<path d="M2316 3323 c-13 -14 -5 -23 12 -14 13 7 22 7 30 -1 11 -11 35 -2 28
11 -6 9 -61 12 -70 4z"/>
<path d="M2420 3320 c0 -5 5 -10 11 -10 5 0 7 5 4 10 -3 6 -8 10 -11 10 -2 0
-4 -4 -4 -10z"/>
<path d="M2766 3321 c-4 -7 -5 -15 -2 -18 9 -9 19 4 14 18 -4 11 -6 11 -12 0z"/>
<path d="M3485 3291 c58 -26 82 -30 199 -36 90 -4 110 -2 135 13 l29 18 -111
3 c-62 1 -143 6 -182 11 -103 14 -116 12 -70 -9z"/>
<path d="M2040 3273 c0 -13 5 -23 10 -23 13 0 13 11 0 30 -8 12 -10 11 -10 -7z"/>
<path d="M2390 3280 c8 -5 22 -10 30 -10 13 0 13 1 0 10 -8 5 -22 10 -30 10
-13 0 -13 -1 0 -10z"/>
<path d="M2553 3260 c2 -8 14 -16 28 -17 19 -1 20 -1 4 4 -11 3 -24 10 -28 17
-6 7 -7 6 -4 -4z"/>
<path d="M2033 3227 c-10 -16 19 -26 34 -12 7 8 13 16 13 19 0 8 -41 2 -47 -7z"/>
<path d="M2762 3191 c-7 -4 -5 -11 8 -19 10 -6 21 -8 23 -4 7 11 -19 31 -31
23z"/>
<path d="M3699 3186 c14 -8 31 -12 38 -9 7 3 13 0 13 -7 0 -10 3 -10 15 0 26
22 16 30 -37 30 -50 -1 -52 -1 -29 -14z"/>
<path d="M3796 3192 c-2 -4 -1 -14 4 -22 7 -11 9 -9 7 8 -1 24 -3 26 -11 14z"/>
<path d="M3885 3192 c-2 -3 -2 -8 1 -13 5 -9 34 -1 34 10 0 8 -27 10 -35 3z"/>
<path d="M2873 3163 c1 -23 12 -28 83 -39 21 -3 42 -8 46 -10 4 -3 69 -16 144
-29 76 -14 166 -32 201 -41 35 -9 66 -14 69 -11 10 10 -194 56 -406 92 -19 3
-37 11 -41 17 -4 6 -11 8 -17 4 -13 -8 -64 11 -74 27 -4 7 -6 3 -5 -10z"/>
<path d="M3500 2999 c14 -7 71 -34 127 -60 57 -27 106 -49 110 -49 27 0 -178
98 -237 114 l-25 6 25 -11z"/>
<path d="M4831 2974 c0 -11 3 -14 6 -6 3 7 2 16 -1 19 -3 4 -6 -2 -5 -13z"/>
<path d="M4885 2959 c-4 -6 -5 -12 -2 -15 7 -7 37 7 37 17 0 13 -27 11 -35 -2z"/>
<path d="M4850 2939 c0 -5 5 -7 10 -4 6 3 10 8 10 11 0 2 -4 4 -10 4 -5 0 -10
-5 -10 -11z"/>
<path d="M4680 2906 c0 -2 8 -10 18 -17 15 -13 16 -12 3 4 -13 16 -21 21 -21
13z"/>
<path d="M5288 2883 c7 -3 16 -2 19 1 4 3 -2 6 -13 5 -11 0 -14 -3 -6 -6z"/>
<path d="M3770 2873 c8 -3 17 -9 20 -13 3 -4 16 -11 30 -14 21 -6 20 -4 -8 13
-18 12 -38 21 -45 20 -7 0 -6 -3 3 -6z"/>
<path d="M3850 2830 c0 -5 6 -10 14 -10 8 0 16 -7 20 -15 3 -8 14 -15 25 -15
11 0 21 -4 23 -8 2 -5 26 -21 53 -37 l50 -27 -24 26 c-13 14 -34 29 -45 32
-12 4 -23 10 -26 13 -6 8 -79 51 -86 51 -2 0 -4 -4 -4 -10z"/>
<path d="M7326 2803 c-6 -14 -5 -15 5 -6 7 7 10 15 7 18 -3 3 -9 -2 -12 -12z"/>
<path d="M4531 2790 c-30 -26 -14 -26 19 0 14 11 21 20 15 19 -5 0 -21 -9 -34
-19z"/>
<path d="M4810 2796 c0 -8 4 -17 9 -20 5 -4 7 3 4 14 -6 23 -13 26 -13 6z"/>
<path d="M7347 2776 c-6 -16 -10 -16 -24 -5 -15 13 -16 11 -10 -13 5 -18 2
-32 -9 -42 -9 -9 -11 -16 -4 -16 7 0 9 -8 5 -20 -4 -12 -2 -20 5 -20 6 0 8 -4
5 -10 -3 -5 -4 -14 0 -20 8 -13 35 17 62 67 18 35 19 42 6 47 -13 5 -12 8 1
22 21 21 20 27 -3 14 -14 -7 -21 -6 -23 2 -3 7 -7 5 -11 -6z"/>
<path d="M3882 2764 c9 -9 21 -15 27 -13 6 2 -2 10 -17 17 -25 11 -25 11 -10
-4z"/>
<path d="M7200 2760 c-11 -7 -12 -12 -4 -20 8 -8 13 -6 17 9 3 12 4 21 4 21
-1 0 -9 -5 -17 -10z"/>
<path d="M4810 2741 c0 -11 4 -22 9 -25 4 -3 6 6 3 19 -5 30 -12 33 -12 6z"/>
<path d="M7060 2740 c0 -5 7 -7 15 -4 8 4 15 8 15 10 0 2 -7 4 -15 4 -8 0 -15
-4 -15 -10z"/>
<path d="M6963 2732 c-7 -4 -11 -15 -9 -24 2 -20 16 -36 17 -22 0 5 2 19 5 32
4 24 4 25 -13 14z"/>
<path d="M7231 2724 c0 -11 3 -14 6 -6 3 7 2 16 -1 19 -3 4 -6 -2 -5 -13z"/>
<path d="M4040 2722 c0 -14 48 -43 54 -34 3 5 -8 16 -25 26 -16 9 -29 13 -29
8z"/>
<path d="M6865 2720 c-3 -5 -1 -10 4 -10 6 0 11 5 11 10 0 6 -2 10 -4 10 -3 0
-8 -4 -11 -10z"/>
<path d="M7435 2720 c3 -5 11 -10 16 -10 6 0 7 5 4 10 -3 6 -11 10 -16 10 -6
0 -7 -4 -4 -10z"/>
<path d="M4807 2671 c-4 -18 -7 -48 -6 -65 1 -29 1 -29 10 9 6 22 8 51 7 65
-3 22 -4 21 -11 -9z"/>
<path d="M7015 2680 c-3 -5 -1 -10 4 -10 6 0 11 5 11 10 0 6 -2 10 -4 10 -3 0
-8 -4 -11 -10z"/>
<path d="M5961 2661 c-7 -5 -9 -11 -5 -14 5 -3 15 1 22 9 14 16 5 18 -17 5z"/>
<path d="M7045 2640 c-3 -5 -1 -10 4 -10 6 0 11 5 11 10 0 6 -2 10 -4 10 -3 0
-8 -4 -11 -10z"/>
<path d="M5467 2626 c-4 -10 -5 -21 -2 -24 9 -9 17 6 13 25 -3 17 -4 17 -11
-1z"/>
<path d="M4190 2620 c-13 -9 -13 -10 0 -9 8 1 26 5 40 9 l25 8 -25 1 c-14 0
-32 -4 -40 -9z"/>
<path d="M5860 2610 c0 -5 7 -10 15 -10 8 0 15 5 15 10 0 6 -7 10 -15 10 -8 0
-15 -4 -15 -10z"/>
<path d="M5915 2610 c-3 -6 1 -7 9 -4 18 7 21 14 7 14 -6 0 -13 -4 -16 -10z"/>
<path d="M6117 2606 c-4 -10 -7 -20 -7 -22 0 -9 39 -4 45 6 3 6 0 10 -9 10 -8
0 -16 5 -18 12 -3 7 -7 5 -11 -6z"/>
<path d="M7035 2610 c-3 -5 -1 -10 4 -10 6 0 11 5 11 10 0 6 -2 10 -4 10 -3 0
-8 -4 -11 -10z"/>
<path d="M7397 2613 c-4 -3 -7 -13 -7 -22 1 -13 3 -13 11 2 11 19 8 33 -4 20z"/>
<path d="M4285 2600 c-3 -6 1 -7 9 -4 18 7 21 14 7 14 -6 0 -13 -4 -16 -10z"/>
<path d="M6040 2600 c0 -5 5 -10 11 -10 5 0 7 5 4 10 -3 6 -8 10 -11 10 -2 0
-4 -4 -4 -10z"/>
<path d="M7090 2601 c0 -5 -13 -12 -30 -16 -16 -4 -30 -10 -30 -13 0 -4 -12
-8 -26 -8 -14 -1 -33 -9 -43 -18 -10 -9 -23 -16 -31 -16 -7 0 -27 -9 -45 -20
-19 -11 -37 -20 -42 -19 -4 1 -17 -2 -27 -6 -13 -6 -21 -4 -24 3 -5 17 -22 15
-22 -2 0 -9 -16 -16 -45 -20 -25 -3 -65 -9 -90 -12 -25 -4 -45 -10 -45 -15 0
-5 6 -9 14 -9 8 0 17 -7 20 -16 4 -12 2 -15 -9 -10 -8 3 -21 9 -29 12 -7 3
-20 -2 -29 -10 -8 -8 -18 -12 -22 -8 -5 4 -5 -1 -2 -10 3 -10 2 -20 -3 -23 -6
-4 -10 1 -10 9 0 21 -44 21 -64 0 -21 -20 -20 -23 4 -17 11 3 20 0 20 -6 0 -6
5 -11 10 -11 6 0 10 8 10 18 1 16 1 16 11 0 5 -10 16 -15 24 -12 9 4 15 0 15
-7 0 -8 -12 -15 -27 -15 -49 -3 -157 -14 -160 -18 -2 -2 3 -15 11 -30 9 -18
16 -23 19 -14 4 10 8 10 16 -2 10 -13 12 -13 21 0 8 13 10 12 10 -2 0 -10 5
-18 11 -18 5 0 7 5 4 10 -9 14 9 12 24 -2 10 -11 15 -10 25 5 7 9 25 17 39 17
36 0 139 40 158 61 9 10 18 16 21 14 2 -2 31 9 63 24 43 21 64 26 73 19 9 -8
11 -7 6 6 -4 10 -1 16 8 16 8 0 33 14 56 31 23 17 42 28 42 24 0 -3 12 6 27
20 15 14 36 25 45 25 10 0 18 5 18 10 0 6 8 10 18 10 14 0 15 2 2 10 -13 8
-13 10 2 10 19 0 38 28 31 48 -5 14 -23 16 -23 3z m-235 -161 c-3 -5 -12 -7
-20 -3 -21 7 -19 13 6 13 11 0 18 -4 14 -10z m-135 -19 c0 -13 -39 -21 -46
-10 -4 6 -11 6 -18 0 -7 -6 -16 -8 -19 -4 -16 16 -4 23 38 23 25 0 45 -4 45
-9z m-130 -21 c0 -5 -7 -10 -16 -10 -8 0 -12 5 -9 10 3 6 10 10 16 10 5 0 9
-4 9 -10z m-190 -110 c0 -5 -4 -10 -10 -10 -5 0 -10 5 -10 10 0 6 5 10 10 10
6 0 10 -4 10 -10z m100 -20 c0 -5 -4 -10 -10 -10 -5 0 -10 5 -10 10 0 6 5 10
10 10 6 0 10 -4 10 -10z"/>
<path d="M5784 2586 c-9 -23 0 -51 17 -54 17 -3 47 53 35 65 -3 3 -6 1 -6 -5
0 -7 -7 -12 -15 -12 -8 0 -15 -4 -15 -10 0 -5 5 -10 11 -10 5 0 7 -4 4 -10
-14 -22 -27 -9 -21 20 6 31 0 41 -10 16z"/>
<path d="M5935 2590 c-3 -6 1 -7 9 -4 18 7 21 14 7 14 -6 0 -13 -4 -16 -10z"/>
<path d="M5970 2578 c0 -4 4 -8 9 -8 6 0 12 4 15 8 3 5 -1 9 -9 9 -8 0 -15 -4
-15 -9z"/>
<path d="M6737 2583 c-4 -3 -7 -11 -7 -17 0 -6 5 -5 12 2 6 6 9 14 7 17 -3 3
-9 2 -12 -2z"/>
<path d="M5755 2569 c-4 -6 -5 -12 -2 -15 2 -3 7 2 10 11 7 17 1 20 -8 4z"/>
<path d="M7130 2570 c0 -5 7 -10 15 -10 8 0 15 5 15 10 0 6 -7 10 -15 10 -8 0
-15 -4 -15 -10z"/>
<path d="M5690 2559 c0 -5 7 -9 15 -9 8 0 15 -4 15 -9 0 -5 -9 -7 -20 -4 -11
3 -20 0 -20 -6 0 -5 6 -8 14 -5 8 3 17 0 21 -5 3 -6 11 -9 16 -6 5 4 9 1 9 -6
0 -7 2 -10 5 -7 10 10 -17 56 -36 61 -11 3 -19 1 -19 -4z"/>
<path d="M5920 2554 c0 -8 5 -12 10 -9 6 3 10 10 10 16 0 5 -4 9 -10 9 -5 0
-10 -7 -10 -16z"/>
<path d="M5865 2550 c-3 -5 -2 -10 4 -10 5 0 13 5 16 10 3 6 2 10 -4 10 -5 0
-13 -4 -16 -10z"/>
<path d="M4788 2545 c-8 -8 3 -55 13 -55 5 0 9 14 9 30 0 28 -9 38 -22 25z"/>
<path d="M5635 2540 c3 -5 1 -10 -5 -10 -7 0 -10 -7 -6 -15 3 -9 0 -15 -10
-15 -10 0 -14 -6 -11 -14 3 -8 1 -17 -6 -20 -9 -3 -8 -5 1 -5 7 -1 15 6 18 14
4 8 10 15 15 15 6 0 5 -9 -1 -20 -7 -12 -7 -20 -1 -20 5 0 13 9 16 20 4 11 10
18 15 15 5 -3 11 -1 15 5 6 9 -8 15 -29 11 -4 -1 -5 10 -2 24 4 15 2 25 -4 25
-6 0 -8 -4 -5 -10z"/>
<path d="M4263 2510 c1 -11 4 -20 8 -20 4 0 16 -3 26 -6 15 -5 15 -4 3 5 -8 6
-11 11 -6 11 11 0 -13 30 -25 30 -4 0 -7 -9 -6 -20z"/>
<path d="M7190 2519 c0 -5 5 -7 10 -4 6 3 10 8 10 11 0 2 -4 4 -10 4 -5 0 -10
-5 -10 -11z"/>
<path d="M5340 2511 c0 -5 5 -13 10 -16 6 -3 10 -2 10 4 0 5 -4 13 -10 16 -5
3 -10 2 -10 -4z"/>
<path d="M6730 2499 c0 -5 5 -7 10 -4 6 3 10 8 10 11 0 2 -4 4 -10 4 -5 0 -10
-5 -10 -11z"/>
<path d="M4705 2490 c-3 -5 -1 -10 4 -10 6 0 11 5 11 10 0 6 -2 10 -4 10 -3 0
-8 -4 -11 -10z"/>
<path d="M5841 2484 c0 -11 3 -14 6 -6 3 7 2 16 -1 19 -3 4 -6 -2 -5 -13z"/>
<path d="M4800 2468 c0 -12 7 -18 23 -17 15 0 17 2 7 6 -8 3 -18 11 -22 17 -5
7 -8 4 -8 -6z"/>
<path d="M4363 2462 c-8 -5 -8 -12 2 -25 8 -12 15 -14 20 -8 3 6 2 11 -4 11
-6 0 -8 7 -5 15 7 17 4 18 -13 7z"/>
<path d="M5522 2458 c-14 -14 -16 -28 -3 -28 9 0 24 30 18 36 -2 2 -9 -2 -15
-8z"/>
<path d="M5745 2450 c-4 -12 -4 -24 -1 -27 3 -4 6 1 6 11 0 9 4 15 10 11 5 -3
6 -13 3 -23 -5 -13 -3 -14 6 -6 15 14 11 46 -6 51 -6 2 -14 -5 -18 -17z"/>
<path d="M4750 2454 c0 -2 9 -8 20 -14 11 -6 20 -7 20 -2 0 6 -9 12 -20 15
-11 3 -20 3 -20 1z"/>
<path d="M5470 2446 c0 -2 7 -9 15 -16 9 -7 15 -8 15 -2 0 5 -7 12 -15 16 -8
3 -15 4 -15 2z"/>
<path d="M5813 2443 c-22 -8 -14 -21 10 -15 20 5 21 4 8 -12 -8 -9 -20 -15
-27 -12 -17 6 -28 -25 -13 -38 8 -8 14 -6 23 8 17 29 56 66 68 66 6 0 9 3 6 6
-4 3 -16 1 -27 -6 -14 -7 -21 -7 -21 0 0 11 -7 12 -27 3z m-3 -63 c0 -5 -4
-10 -10 -10 -5 0 -10 5 -10 10 0 6 5 10 10 10 6 0 10 -4 10 -10z"/>
<path d="M5944 2438 c3 -15 26 -23 26 -8 0 6 -4 9 -9 6 -5 -4 -12 -1 -14 4 -3
6 -4 5 -3 -2z"/>
<path d="M5580 2430 c0 -14 15 -19 29 -11 9 6 7 10 -8 14 -12 3 -21 1 -21 -3z"/>
<path d="M4381 2411 c-10 -7 -8 -10 8 -16 27 -8 36 -2 18 13 -7 6 -18 7 -26 3z"/>
<path d="M5863 2406 c-13 -6 -25 -16 -27 -23 -7 -17 20 -17 28 0 5 10 7 10 12
0 8 -18 24 -16 24 2 0 8 6 15 13 15 8 0 7 4 -3 10 -17 11 -18 11 -47 -4z"/>
<path d="M4285 2400 c3 -5 8 -10 11 -10 2 0 4 5 4 10 0 6 -5 10 -11 10 -5 0
-7 -4 -4 -10z"/>
<path d="M5553 2387 c-13 -13 -23 -28 -23 -34 0 -6 -7 -16 -15 -23 -14 -11
-14 -15 2 -30 20 -19 33 -9 33 26 0 12 9 31 20 44 11 12 17 27 14 31 -7 11 -5
12 -31 -14z m-18 -77 c3 -6 -1 -7 -9 -4 -18 7 -21 14 -7 14 6 0 13 -4 16 -10z"/>
<path d="M5623 2403 c-25 -5 -30 -18 -10 -26 7 -3 19 4 25 14 7 10 11 18 10
18 -2 -1 -13 -4 -25 -6z"/>
<path d="M7090 2400 c0 -5 5 -10 10 -10 6 0 10 5 10 10 0 6 -4 10 -10 10 -5 0
-10 -4 -10 -10z"/>
<path d="M5917 2383 c-4 -3 -7 -11 -7 -17 0 -6 5 -5 12 2 6 6 9 14 7 17 -3 3
-9 2 -12 -2z"/>
<path d="M6258 2383 c7 -3 16 -2 19 1 4 3 -2 6 -13 5 -11 0 -14 -3 -6 -6z"/>
<path d="M6325 2360 c3 -5 8 -10 11 -10 2 0 4 5 4 10 0 6 -5 10 -11 10 -5 0
-7 -4 -4 -10z"/>
<path d="M5860 2351 c0 -5 5 -13 10 -16 6 -3 10 -2 10 4 0 5 -4 13 -10 16 -5
3 -10 2 -10 -4z"/>
<path d="M6030 2344 c0 -8 5 -12 10 -9 6 3 10 10 10 16 0 5 -4 9 -10 9 -5 0
-10 -7 -10 -16z"/>
<path d="M6875 2350 c3 -5 8 -10 11 -10 2 0 4 5 4 10 0 6 -5 10 -11 10 -5 0
-7 -4 -4 -10z"/>
<path d="M5993 2332 c-1 -9 -6 -29 -12 -44 -8 -21 -15 -25 -33 -22 -19 5 -20
4 -6 -5 9 -6 23 -8 32 -5 19 7 42 72 29 85 -5 5 -9 2 -10 -9z"/>
<path d="M6830 2339 c0 -5 5 -7 10 -4 6 3 10 8 10 11 0 2 -4 4 -10 4 -5 0 -10
-5 -10 -11z"/>
<path d="M5925 2300 c3 -5 8 -10 11 -10 2 0 4 5 4 10 0 6 -5 10 -11 10 -5 0
-7 -4 -4 -10z"/>
<path d="M5799 2271 c8 -5 11 -16 7 -26 -5 -15 -4 -16 9 -5 12 10 13 16 4 26
-6 8 -17 14 -23 14 -6 0 -5 -4 3 -9z"/>
<path d="M5890 2260 c0 -5 5 -10 11 -10 5 0 7 5 4 10 -3 6 -8 10 -11 10 -2 0
-4 -4 -4 -10z"/>
<path d="M5720 2250 c0 -5 5 -10 10 -10 6 0 10 5 10 10 0 6 -4 10 -10 10 -5 0
-10 -4 -10 -10z"/>
<path d="M5860 2249 c0 -5 5 -7 10 -4 6 3 10 8 10 11 0 2 -4 4 -10 4 -5 0 -10
-5 -10 -11z"/>
<path d="M5800 2193 c1 -24 18 -35 39 -24 26 15 27 21 1 14 -11 -3 -20 0 -20
6 0 6 -4 11 -10 11 -5 0 -10 -3 -10 -7z"/>
<path d="M5875 2180 c4 -6 11 -8 16 -5 14 9 11 15 -7 15 -8 0 -12 -5 -9 -10z"/>
<path d="M4870 2131 c0 -12 5 -21 10 -21 6 0 10 6 10 14 0 8 -4 18 -10 21 -5
3 -10 -3 -10 -14z"/>
<path d="M4900 2110 c0 -5 7 -10 16 -10 8 0 12 5 9 10 -3 6 -10 10 -16 10 -5
0 -9 -4 -9 -10z"/>
<path d="M4960 2103 c0 -13 5 -23 10 -23 13 0 13 11 0 30 -8 12 -10 11 -10 -7z"/>
<path d="M4870 2090 c0 -5 5 -10 10 -10 6 0 10 5 10 10 0 6 -4 10 -10 10 -5 0
-10 -4 -10 -10z"/>
<path d="M5016 2075 c-3 -8 -1 -15 4 -15 13 0 22 18 11 24 -5 3 -11 -1 -15 -9z"/>
<path d="M4875 2060 c-3 -5 -1 -10 4 -10 6 0 11 5 11 10 0 6 -2 10 -4 10 -3 0
-8 -4 -11 -10z"/>
<path d="M4954 2048 c-3 -4 4 -8 15 -8 12 0 21 4 21 8 0 5 -7 9 -15 9 -9 0
-18 -4 -21 -9z"/>
<path d="M4882 2016 c8 -6 13 -18 11 -26 -4 -13 -3 -13 5 -1 13 18 5 38 -15
38 -14 0 -14 -2 -1 -11z"/>
<path d="M6395 1960 c3 -5 8 -10 11 -10 2 0 4 5 4 10 0 6 -5 10 -11 10 -5 0
-7 -4 -4 -10z"/>
<path d="M6345 1950 c-3 -6 1 -7 9 -4 18 7 21 14 7 14 -6 0 -13 -4 -16 -10z"/>
<path d="M4860 1815 c0 -8 4 -15 10 -15 5 0 7 7 4 15 -4 8 -8 15 -10 15 -2 0
-4 -7 -4 -15z"/>
<path d="M4766 1747 c3 -10 9 -15 12 -12 3 3 0 11 -7 18 -10 9 -11 8 -5 -6z"/>
<path d="M4776 1585 c-9 -23 -8 -25 9 -25 17 0 19 9 6 28 -7 11 -10 10 -15 -3z"/>
</g>
</svg>
