<svg t="1662554844442" class="icon" viewBox="0 0 1621 1024" version="1.1" xmlns="http://www.w3.org/2000/svg" p-id="2421" width="200" height="200"><path d="M1109.334187 674.56l301.312 168.277333c12.288 6.826667 26.026667 10.496 40.021333 10.496 47.104 0 85.333333-40.106667 85.333333-89.770666V260.437333c0-14.677333-3.413333-29.098667-9.984-42.069333-22.101333-43.776-73.728-60.416-115.370666-37.205333L1109.334187 349.44v325.12z m0-424.021333l261.290666-144.384c83.285333-46.08 186.538667-13.141333 230.741334 73.557333 13.141333 25.6 19.968 54.272 19.968 83.285333v498.005334c0 98.133333-76.373333 177.664-170.666667 177.664-27.904 0-55.466667-7.168-80.042667-20.736L1109.334187 773.461333v64.341334C1109.334187 940.629333 1026.560853 1024 924.416853 1024H184.918187A185.514667 185.514667 0 0 1 0.000853 837.802667V186.197333C0.000853 83.370667 82.774187 0 184.918187 0h739.498666C1026.560853 0 1109.334187 83.370667 1109.334187 186.197333v64.341334zM179.200853 85.333333C127.318187 85.333333 85.334187 127.744 85.334187 180.138667V843.946667C85.334187 896.256 127.318187 938.666667 179.200853 938.666667h750.933334c51.882667 0 93.866667-42.410667 93.866666-94.805334V180.053333C1024.000853 127.744 982.016853 85.333333 930.134187 85.333333H179.200853zM341.334187 426.666667a85.333333 85.333333 0 1 1 0-170.666667 85.333333 85.333333 0 0 1 0 170.666667z" p-id="2422"></path></svg>